<svg id="Logo" xmlns="http://www.w3.org/2000/svg" width="252" height="73.558" viewBox="0 0 252 73.558">
  <path id="Tracé_1" data-name="Tracé 1" d="M67.465,48.3a27.917,27.917,0,0,0-4.023-6.029c2.089-2.376,3.3-6.01,1.816-11.588a20.031,20.031,0,0,0-.621-1.924,10.253,10.253,0,0,0-.165-2.423,11.122,11.122,0,0,0,.132-2.813,14.265,14.265,0,0,0,.3-2.271c1.435-5.9.725-13.917-10.52-19.043-11.4-5.2-17.884-.242-21.314,4.832a29.267,29.267,0,0,0-3.388,7.108c-2.941-.375-6.4.561-10.125,4.328-.334.337-.635.67-.922,1-.061.057-.122.1-.183.157a10.2,10.2,0,0,0-2.225,1.387,11.321,11.321,0,0,0-2.456,1.183,15.264,15.264,0,0,0-2.009.765c-.085.024-.179.038-.263.062C5.655,24.676-1.059,29.256.141,41.709c1.2,12.5,8.591,15.679,14.576,16.145a28.159,28.159,0,0,0,8.13-.689c1.063,2.917,3.613,5.668,9.01,7.122.4.109.786.2,1.162.276a10.01,10.01,0,0,0,2.037,1.126,11.312,11.312,0,0,0,2.07,1.487,14.583,14.583,0,0,0,1.4,1.221c.151.157.3.328.447.48a14.861,14.861,0,0,0,10.464,4.68c3.265,0,7.053-1.178,11.353-4.3C71.008,61.85,70.053,53.773,67.451,48.3Zm-4.371-6.443c-.579-.66-1.209-1.311-1.858-1.958a10.331,10.331,0,0,0,3.8-7.906c.842,4.081.174,7.412-1.934,9.868ZM38.9,68.013c-.024-.024-.047-.052-.071-.076a11.805,11.805,0,0,0,3.924.641,18.842,18.842,0,0,0,6.5-1.292c9.594-3.535,10.6-10.073,9.749-14.933a23.37,23.37,0,0,0-2.136-6.224,16.819,16.819,0,0,0,2.649-.979c.141-.067.282-.143.423-.214a24.152,24.152,0,0,1,2.795,5.559c2.381,7.136-.367,13.123-7.951,17.318-6.14,3.392-11.56,3.445-15.884.2ZM11.974,23.469c.085-.024.174-.038.259-.062C10.261,25.251,8.657,28.1,7.89,32.43c-1.76,10.044,3.331,14.159,7.919,15.846a23.173,23.173,0,0,0,6.86,1.264,16.439,16.439,0,0,0-.409,2.49c-.024.271-.038.551-.047.836a24.393,24.393,0,0,1-6.836-.318c-7.3-1.482-11.043-6.832-10.831-15.461.174-6.775,2.729-11.4,7.434-13.622Zm52.414-2.29c-.014.052-.019.1-.033.152-.019.081-.052.162-.071.242-.663-2.556-2.31-5.274-5.542-8.006-7.782-6.585-13.922-4.138-17.7-.927a23.574,23.574,0,0,0-4.357,5.1A16.7,16.7,0,0,0,34.9,16.281c-.306-.214-.635-.423-.969-.622a25.03,25.03,0,0,1,3.515-5.469C42.425,4.469,48.941,3.823,56.3,8.336c5.6,3.44,8.333,7.821,8.093,12.843M60.85,39.524c-.513-.5-1.045-.988-1.6-1.478a19.083,19.083,0,0,0,2.437-2.371,12.5,12.5,0,0,0,2.705-5.217,9.726,9.726,0,0,1-3.543,9.065m-31.425,19.1a18.33,18.33,0,0,1-.781-3.16c.367-.133.734-.285,1.1-.428a24.171,24.171,0,0,0,2.541,7.136,15.539,15.539,0,0,0,1.332,1.967.858.858,0,0,1-.108-.019c-.089-.029-.183-.048-.268-.076A11.086,11.086,0,0,1,29.425,58.619ZM13.385,23.132c.315-.062.649-.1.974-.157a17.9,17.9,0,0,0-2.592,4.8c-3.251,8.809.687,13.4,4.569,15.7a22.775,22.775,0,0,0,7.462,2.6,24.175,24.175,0,0,0-1,2.946,22.891,22.891,0,0,1-6.818-1.25c-6.3-2.319-8.925-7.593-7.58-15.256.762-4.29,2.447-7.445,4.983-9.393Zm23.389-4.575a22.963,22.963,0,0,1,2.066,2.357c-.466.561-.922,1.14-1.369,1.753q-1-.976-2.023-1.815c.423-.8.866-1.558,1.327-2.295M28.992,48.784c-.2.024-.4.038-.593.057.047-.722.113-1.454.2-2.2h.056c.1.485.216.945.325,1.421,0,.238,0,.48.009.713ZM15.9,22.78c-.08.119-.16.223-.235.347-4.747,7.564-1.967,12.624,1.2,15.541a23.616,23.616,0,0,0,8.262,4.6Q24.5,44.437,24,45.6a22.481,22.481,0,0,1-7.4-2.575c-5.312-3.15-6.813-8.358-4.338-15.057a16.787,16.787,0,0,1,2.9-5.117c.24-.029.494-.048.739-.071Zm18.058,1.212c.094-.214.193-.423.287-.632.621.413,1.242.846,1.858,1.307-.075.119-.146.252-.221.371a.089.089,0,0,1-.038-.014c-.626-.356-1.256-.713-1.882-1.031Zm18.566,16.23c-.052.033-.1.062-.155.1.042-.043.089-.086.132-.124a.125.125,0,0,1,.024.029m-1.656,2.1c-.4.166-.823.314-1.237.466.311-.266.63-.527.936-.8a.553.553,0,0,1,.089-.052c.066.128.146.257.212.385m-.852,14c-1.2,5.55-5.157,8.462-11.447,8.462h-.052a10.319,10.319,0,0,0,7.754-6.3,25.829,25.829,0,0,0,1.844-11.417c.579.014,1.153.019,1.717.01a23.446,23.446,0,0,1,.184,9.246Zm-2.423-9.778c-.8-.033-1.619-.1-2.437-.171.452-.333.894-.684,1.341-1.026.334-.038.663-.09,1-.138.033.447.08.9.1,1.34Zm-17.07,5.231A62.62,62.62,0,0,0,42.872,46.6c.315.048.63.086.946.124a69.108,69.108,0,0,1-12.671,7.2c-.226-.694-.423-1.421-.63-2.138Zm13.089-5.6c.386-.219.767-.451,1.148-.675.268-.024.536-.048.8-.076-.376.285-.739.58-1.12.855-.278-.033-.555-.071-.833-.109ZM28.2,23.574c.725.147,1.463.337,2.2.513a63.432,63.432,0,0,0-1.741,13.446v.228c-.2.261-.409.523-.6.789A71.248,71.248,0,0,1,28.2,23.574M54.413,37.547A61.428,61.428,0,0,0,44.349,29.8q-.184-.449-.367-.884a68.491,68.491,0,0,1,11.89,7.079c-.461.527-.969,1.041-1.454,1.558ZM52.592,39.41A55.853,55.853,0,0,0,45,31.5c-.094-.261-.179-.527-.278-.784a61.494,61.494,0,0,1,9.307,7.236c-.471.489-.946.974-1.435,1.454M29.58,42.8a52,52,0,0,0,5.8,2.124,48.078,48.078,0,0,1-5.853-.95c.019-.39.024-.779.052-1.169Zm-.1,2.418c0-.242.024-.489.033-.732a50.657,50.657,0,0,0,8.38,1.126c.094.024.188.048.287.067a51.364,51.364,0,0,1-8.6.48c-.033-.314-.075-.622-.1-.941m8.478-.1a51.472,51.472,0,0,1-8.337-2.837c.042-.57.1-1.145.165-1.72.325-1.254.71-2.509,1.129-3.758q.861-1.582,1.826-3.107a51.43,51.43,0,0,1,6.531-5.868c.687.47,1.369.95,2.042,1.454q1.4,1.418,2.71,2.951c.607,1.036,1.167,2.1,1.7,3.174a52.423,52.423,0,0,1,1.567,7.792c-.823.409-1.666.793-2.512,1.164-1.2.318-2.414.594-3.642.831-1.059.01-2.127-.019-3.19-.071ZM47.77,42.94c-.216-1.706-.518-3.43-.913-5.15a48.95,48.95,0,0,1,1.778,4.675c-.047.033-.1.067-.151.1-.24.124-.475.257-.715.38Zm-1.586-8.049a50.977,50.977,0,0,1,4.1,6.367c-.376.28-.743.565-1.134.841a49.984,49.984,0,0,0-2.974-7.2Zm-7.34-7.369a51.8,51.8,0,0,0-4.62,3.967,49.511,49.511,0,0,1,3.665-4.571c.32.2.64.394.96.6ZM44.6,31.917a.179.179,0,0,0,.028.024v.014s-.019-.024-.028-.038m-.358-1.064c-.216-.181-.433-.342-.649-.518-.118-.185-.231-.375-.353-.556.259.157.508.323.762.485C44.086,30.463,44.17,30.653,44.246,30.853Zm-2.2-1.753s-.024-.019-.033-.029l.024.014Zm-4.606-2.442a51.744,51.744,0,0,0-5.077,6.714c-.1.1-.2.209-.292.314A52.821,52.821,0,0,1,35.9,25.978c.513.228,1.021.442,1.534.684ZM46.73,44.318l.5-.157c-.3.238-.607.461-.908.7-.174.019-.358.033-.532.052.32-.195.63-.39.946-.589ZM45.558,33.072c-.052-.152-.108-.3-.16-.456a55.868,55.868,0,0,1,6.785,7.174c-.461.371-.932.736-1.407,1.1a51.869,51.869,0,0,0-5.218-7.816m-1.943-3.739c-.367-.223-.739-.418-1.106-.632-.16-.233-.325-.461-.489-.689.433.19.856.38,1.284.575.108.247.207.5.311.746m-2.23-2.209c-.136-.181-.278-.342-.414-.518.348-.238.7-.489,1.045-.713.32.608.616,1.24.913,1.877-.513-.233-1.03-.428-1.543-.646m-.428.447c.1.133.193.276.287.409-.287-.157-.574-.328-.861-.48l-.306-.28.014-.01c.292.119.579.242.87.361Zm-5.524-1.8A54.236,54.236,0,0,0,31.1,34.735c-.188.214-.372.437-.555.651a57.068,57.068,0,0,1,3.007-10.4c.626.247,1.252.513,1.877.784M29.566,38.289c-.122.242-.231.485-.348.727,0-.39-.009-.779,0-1.164.169-.228.339-.451.513-.679C29.67,37.543,29.618,37.918,29.566,38.289Zm-.908.3c0,.551,0,1.1,0,1.649-.1.238-.226.47-.325.708-.066-.537-.141-1.074-.2-1.615C28.31,39.082,28.479,38.835,28.658,38.588Zm-.837,2.827c-.268-.133-.55-.261-.814-.4.2-.323.433-.641.649-.965.052.456.108.912.165,1.364m1.811,5.255A52.857,52.857,0,0,0,39.489,46c.24.052.475.09.715.138a55.727,55.727,0,0,1-10.318,2.528c-.1-.656-.174-1.321-.249-1.991Zm13.39-1.045c.2-.01.409-.01.612-.024-.282.162-.555.328-.842.485-.226-.033-.447-.062-.673-.1.3-.114.6-.242.9-.361m5.223-2.3.038-.024c-.009,0-.014.014-.024.019h-.014Zm8-7.749a68.053,68.053,0,0,0-12.6-7.455c-.381-.85-.781-1.682-1.2-2.485A25.292,25.292,0,0,1,53.1,21.593a9.7,9.7,0,0,1,9.561,4.371A43.268,43.268,0,0,1,56.243,35.571Zm6.747-9.089c.028.043.052.09.08.133A29.766,29.766,0,0,1,57.3,35.086a43.19,43.19,0,0,0,5.693-8.609Zm-9.937-5.416A25.72,25.72,0,0,0,42.208,25.18c-.3-.556-.612-1.093-.932-1.62A23.486,23.486,0,0,1,49.2,18.751C54.616,17,59.109,19,62.238,24.5a10.328,10.328,0,0,0-9.189-3.435ZM41.78,25.451c-.376.242-.748.513-1.124.77-.32-.4-.635-.812-.965-1.2.4-.39.8-.76,1.2-1.126.306.5.6,1.022.894,1.554Zm-1.623,1.107a.542.542,0,0,1-.052.033c-.433-.171-.861-.347-1.289-.508l-.085-.071c.179-.19.353-.39.536-.575.306.356.593.746.894,1.121ZM33.09,24.823A58.423,58.423,0,0,0,29.9,36.174c-.216.271-.428.542-.64.812A63.77,63.77,0,0,1,30.94,24.22c.6.152,1.2.309,1.807.48.113.043.231.081.343.128ZM19.144,22.614a45.73,45.73,0,0,1,8.507.86,71.028,71.028,0,0,0-.146,15.375c.014.152.038.295.056.447-.339.494-.687.988-1,1.487a25.221,25.221,0,0,1-8.733-7.236,9.82,9.82,0,0,1-.781-10.866c.687-.043,1.383-.067,2.094-.067Zm-1.783-.48a.521.521,0,0,0,.038-.067c.692-.067,1.393-.109,2.113-.109a30.51,30.51,0,0,1,5.364.513,41.343,41.343,0,0,0-7.514-.337M17.4,33.851a25.674,25.674,0,0,0,8.892,7.364c-.325.532-.63,1.064-.922,1.6a23.291,23.291,0,0,1-8.149-4.533c-4.319-3.977-4.71-9.1-1.134-14.829a10.394,10.394,0,0,0,1.313,10.4m9.335,7.6c.376.2.772.375,1.157.565a.163.163,0,0,0,0,.048c-.183.461-.376.922-.541,1.383-.508-.143-1.012-.3-1.506-.461.282-.513.574-1.022.885-1.53Zm1.3,1.644c.028.185.066.366.1.551-.094-.024-.193-.043-.287-.067.056-.162.132-.323.188-.485m1.929,6.067A56.916,56.916,0,0,0,41.2,46.328c.278.048.55.109.828.152A61.428,61.428,0,0,1,30.38,51.3c-.042-.162-.094-.314-.141-.475-.1-.546-.188-1.107-.278-1.668Zm1.35,5.245a70.2,70.2,0,0,0,13.249-7.588c1.026.114,2.047.2,3.049.242a25.35,25.35,0,0,1-1.816,11.208,9.76,9.76,0,0,1-9.749,6.134,43.443,43.443,0,0,1-4.738-10Zm16.783-7.835c-.019-.47-.071-.955-.108-1.43.456-.071.922-.128,1.369-.209.141.551.268,1.1.381,1.644-.541.01-1.087.01-1.642,0Zm1.129-2.133c-.419.076-.852.128-1.275.195-.009-.124-.014-.247-.028-.375.2-.157.381-.328.574-.489.16-.057.315-.124.475-.181.085.28.179.565.259.85Zm5.331-5.968c.066.067.132.138.2.2-.569.423-1.153.841-1.76,1.245l-.071-.086c.55-.451,1.106-.9,1.628-1.364Zm.419-.375c.555-.5,1.092-1.022,1.614-1.539.136.109.268.219.4.328-.569.494-1.172.974-1.788,1.449C55.124,38.255,55.053,38.179,54.973,38.1Zm2-1.943a31.729,31.729,0,0,0,6.4-8.947c.08.152.155.3.231.456a14.7,14.7,0,0,1-1.3,3.012,24.068,24.068,0,0,1-4.889,5.83c-.146-.119-.292-.238-.442-.356ZM63.1,24.98c-4.14-7.968-9.932-8.053-14.063-6.723a23.809,23.809,0,0,0-8.041,4.875q-.72-1.155-1.491-2.2a22.7,22.7,0,0,1,5.787-5.022c5.43-3.112,10.694-1.834,15.23,3.7a17.149,17.149,0,0,1,2.837,4.737c-.085.214-.165.428-.254.646a.024.024,0,0,0,0-.014Zm-22.49-1.516c-.423.38-.842.77-1.256,1.178-.494-.561-1-1.088-1.51-1.606q.649-.884,1.327-1.7c.5.67.979,1.383,1.44,2.124Zm-1.68,1.6c-.2.2-.4.428-.6.641-.5-.413-.993-.836-1.5-1.221.216-.328.442-.646.668-.96q.727.741,1.43,1.544Zm-1.816.423c-.249-.09-.5-.185-.753-.266.047-.076.094-.162.141-.238.207.157.4.337.612.5M32.822,24.13c-.574-.209-1.148-.437-1.713-.622l.056-.2c.663.285,1.332.589,1.995.922l-.339-.1m-2.24-.793c-.762-.242-1.515-.456-2.263-.651.019-.152.047-.3.071-.456.748.252,1.506.546,2.263.86l-.071.242Zm-2.8-.784A32.1,32.1,0,0,0,17.756,21.5c.089-.128.183-.261.278-.39a14.769,14.769,0,0,1,2.814-.271h.024a23.311,23.311,0,0,1,6.982,1.221c-.024.162-.052.323-.075.489m-2.169,20.9c.518.171,1.045.333,1.576.485-.235.689-.442,1.373-.635,2.053-.692-.076-1.369-.171-2.037-.28.325-.746.692-1.5,1.092-2.252Zm2.066.618c.179.048.367.086.55.128.042.257.089.513.136.77-.061.385-.141.774-.193,1.155-.372-.024-.734-.062-1.1-.1.183-.651.381-1.3.607-1.962Zm2.211,7.911c.165.77.343,1.52.536,2.257-.1.043-.2.076-.3.114-.141-.76-.254-1.544-.353-2.342Zm.673,2.746a32.38,32.38,0,0,0,4.183,9.593c-.108-.014-.212-.019-.315-.033a14.342,14.342,0,0,1-1.689-2.371,23.754,23.754,0,0,1-2.508-7.06l.334-.128Zm6.051,10.51c.348.033.692.067,1.059.081.311.014.621.019.917.019,8.243,0,11.047-4.785,11.937-8.88a24.2,24.2,0,0,0-.113-9.379c.823-.029,1.637-.076,2.418-.162A22.456,22.456,0,0,1,54.239,54.4c-.047,6.243-3.8,10.182-10.864,11.389a16.16,16.16,0,0,1-6.418-.052c-.122-.162-.235-.337-.353-.508ZM50.315,46.561c-.113-.575-.24-1.155-.386-1.734.649-.128,1.28-.28,1.906-.437.3.675.56,1.345.809,2.015C51.887,46.485,51.106,46.532,50.315,46.561ZM49.8,44.332c-.085-.314-.188-.632-.282-.946.527-.195,1.059-.38,1.567-.594.183.375.358.751.527,1.126-.593.152-1.2.29-1.816.413Zm1.36-2.689c.56-.333,1.125-.66,1.661-1.007.151.2.292.409.438.608-.6.3-1.214.584-1.844.86-.075-.157-.169-.309-.249-.461Zm2.127-1.311c.626-.418,1.228-.846,1.816-1.283.254.257.513.518.758.774-.668.409-1.374.793-2.1,1.169C53.6,40.773,53.453,40.55,53.289,40.332Zm2.263-1.625c.64-.489,1.256-.984,1.84-1.492.348.28.692.561,1.026.85-.649.508-1.346.993-2.08,1.459-.254-.271-.522-.542-.786-.812Zm2.268-1.867a24.23,24.23,0,0,0,4.936-5.892A15.8,15.8,0,0,0,63.931,28.4a.256.256,0,0,0,.024.052c.052.171.089.337.132.5a11.133,11.133,0,0,1-2.8,6.4,18.669,18.669,0,0,1-2.433,2.361C58.516,37.419,58.168,37.129,57.82,36.839Zm3.1-17.566c-5.966-7.274-11.937-6.1-15.894-3.82a22.974,22.974,0,0,0-5.848,5.07,23.964,23.964,0,0,0-2.117-2.4,23.247,23.247,0,0,1,4.31-5.055c5.2-4.414,11.09-4.1,17.032.931,3.195,2.7,5.048,5.63,5.557,8.676-.1.318-.212.637-.329.955a18.526,18.526,0,0,0-2.715-4.347ZM37.132,23.156c-.24.337-.48.675-.71,1.026-.645-.48-1.289-.922-1.943-1.345.231-.5.466-.984.71-1.459q.988.827,1.943,1.782Zm-3.082-.6q-1.143-.727-2.3-1.326.3-.969.635-1.9a23.2,23.2,0,0,1,2.395,1.706c-.254.494-.5,1-.739,1.516Zm-.24.532c-.1.233-.212.456-.311.689-.734-.366-1.468-.689-2.193-1,.094-.337.183-.675.282-1,.739.4,1.482.836,2.221,1.316m-3.016-.523c-.786-.323-1.562-.622-2.329-.874.066-.423.132-.846.207-1.264A24.552,24.552,0,0,1,31.1,21.516c-.1.347-.2.7-.3,1.05Zm-2.865-1.036a24.085,24.085,0,0,0-7.067-1.212h-.024a15.431,15.431,0,0,0-2.348.181c.1-.124.2-.252.311-.375a10.112,10.112,0,0,1,4.145-.879,13.769,13.769,0,0,1,2.512.242,18.155,18.155,0,0,1,2.7.741c-.08.428-.151.865-.221,1.3Zm-11.65.694c-.08,0-.16.014-.245.024l.221-.043h.038l-.014.024ZM24.311,46.19c.687.114,1.383.219,2.1.295q-.346,1.3-.569,2.566c-.852.038-1.689.043-2.508.019a23.971,23.971,0,0,1,.983-2.879Zm2.611.337c.386.038.776.076,1.167.1-.094.77-.16,1.525-.212,2.276-.508.048-1.016.086-1.515.114q.219-1.226.56-2.49m.927,2.894c-.047.874-.061,1.729-.042,2.561-.612.143-1.219.271-1.821.38a23.066,23.066,0,0,1,.292-2.827c.522-.029,1.045-.067,1.576-.114Zm.513-.052c.216-.024.433-.038.649-.067.042.789.113,1.558.2,2.319-.3.081-.6.157-.894.228-.019-.808,0-1.639.047-2.485Zm.908,2.765c.1.817.216,1.625.362,2.4-.358.143-.715.29-1.073.423-.118-.831-.188-1.7-.226-2.589.311-.076.621-.157.936-.238M40.025,66.62a20.71,20.71,0,0,0,3.435-.309c9.278-1.587,11.268-7.35,11.3-11.907a23.358,23.358,0,0,0-1.369-7.569,24.091,24.091,0,0,0,2.941-.561,22.7,22.7,0,0,1,2.145,6.181c1.167,6.685-2.089,11.645-9.41,14.344C44.74,68.393,41,68.44,37.964,67c-.165-.195-.32-.4-.48-.6a14.544,14.544,0,0,0,2.536.219ZM53.218,46.328c-.249-.694-.518-1.392-.819-2.091.819-.223,1.614-.47,2.376-.741.48.765.908,1.53,1.308,2.3a24.032,24.032,0,0,1-2.87.537Zm-1.026-2.566c-.179-.4-.358-.8-.555-1.2.659-.285,1.294-.584,1.92-.893.325.461.635.922.932,1.387-.739.261-1.51.5-2.3.713Zm1.863-2.352q1.122-.577,2.16-1.2c.461.5.9,1.007,1.332,1.52a23.77,23.77,0,0,1-2.531,1.126c-.306-.48-.621-.96-.955-1.44Zm2.63-1.506c.753-.48,1.463-.974,2.127-1.5q.833.727,1.614,1.478c-.047.038-.089.081-.141.119a17.5,17.5,0,0,1-2.244,1.468q-.649-.784-1.355-1.563ZM34.6,16.718A17.052,17.052,0,0,1,36.388,18.2c-.466.746-.922,1.516-1.35,2.328a24.129,24.129,0,0,0-2.456-1.71c.343-.917.706-1.81,1.106-2.656.306.181.612.347.913.561ZM32.1,18.552a18.181,18.181,0,0,0-1.877-.936c-.282-.119-.579-.228-.88-.333.216-.869.452-1.72.715-2.542a10.536,10.536,0,0,1,3.171,1.136c-.4.85-.772,1.744-1.124,2.67Zm-2.075-.442a17,17,0,0,1,1.882.946c-.226.622-.442,1.259-.649,1.915a25.409,25.409,0,0,0-2.484-1.083c.136-.7.282-1.392.442-2.072.268.1.536.185.809.3Zm-1.774,1.577a19.235,19.235,0,0,0-2.705-.727,12.508,12.508,0,0,0-5.566.133A9.318,9.318,0,0,1,25.6,17.155a10.811,10.811,0,0,1,3.1.485c-.16.67-.311,1.349-.447,2.048ZM16.9,21.383c-.061.076-.122.147-.183.228-.118.014-.245.024-.362.038.056-.048.1-.1.155-.152.127-.043.259-.081.391-.119Zm5.872,30.7a16.881,16.881,0,0,1,.419-2.513c.837.024,1.689.024,2.56-.014a24.114,24.114,0,0,0-.287,2.889q-1.383.242-2.719.371c.009-.242.014-.48.033-.727Zm2.672.884a17.424,17.424,0,0,0,.136,2.456c.019.157.052.323.08.485-.823.242-1.642.461-2.447.646a10.858,10.858,0,0,1-.485-3.217q1.334-.128,2.719-.371Zm.659,2.385a17.628,17.628,0,0,1-.136-2.471c.616-.114,1.233-.247,1.858-.39a25.92,25.92,0,0,0,.235,2.632c-.63.223-1.261.437-1.887.632C26.15,55.621,26.122,55.493,26.1,55.355Zm2.037.285a18.5,18.5,0,0,0,.786,3.164,12.606,12.606,0,0,0,2.795,4.647,9.593,9.593,0,0,1-5.463-7.184c.621-.195,1.252-.4,1.877-.627ZM59.292,44.674a17.282,17.282,0,0,1-2.672.979c-.4-.779-.837-1.568-1.322-2.357a24.335,24.335,0,0,0,2.583-1.155c.63.774,1.228,1.558,1.769,2.347C59.532,44.551,59.419,44.617,59.292,44.674Zm-.917-2.789a17.3,17.3,0,0,0,2.23-1.463c.071-.052.136-.114.207-.171.673.66,1.322,1.33,1.92,2.01a11.133,11.133,0,0,1-2.6,1.977C59.6,43.453,59.005,42.664,58.375,41.885ZM33.509,7.339C38.27.3,45.408-1.3,54.173,2.692,62,6.26,65.621,11.8,64.807,18.813c-.508-3.658-2.715-7.536-8.248-10.928C46.96,1.993,40.651,5.7,37.047,9.843a25.827,25.827,0,0,0-3.581,5.55,10.992,10.992,0,0,0-3.242-1.164,28.179,28.179,0,0,1,3.284-6.885ZM28.531,14.6a8.665,8.665,0,0,1,.988.086c-.249.784-.48,1.6-.687,2.428a10.068,10.068,0,0,0-7.584.527A11.309,11.309,0,0,1,28.531,14.6M14.764,57.327C6.469,56.681,1.595,51.264.668,41.662-.17,32.943,2.917,26.98,9.6,24.263c-3.035,2.228-5.415,6.11-5.585,12.814C3.736,48.352,9.979,52,15.263,53.07a24.769,24.769,0,0,0,6.94.318,11.5,11.5,0,0,0,.489,3.283,27.579,27.579,0,0,1-7.933.656Zm8.61-.285q1.179-.278,2.381-.632a10.27,10.27,0,0,0,4.3,6.728c-3.392-1.3-5.646-3.359-6.676-6.1M60.5,68.83c-7.246,5.255-14.03,5.55-19.742.917A11.9,11.9,0,0,0,46,70.949a18.731,18.731,0,0,0,9.034-2.675c9.9-5.473,9.928-12.786,8.2-17.95a24.988,24.988,0,0,0-2.818-5.645,11.746,11.746,0,0,0,2.663-2.01,27,27,0,0,1,3.915,5.858c3.6,7.588,1.36,14.605-6.493,20.3Z" transform="translate(0 0)" fill="#719597"/>
  <path id="Tracé_2" data-name="Tracé 2" d="M412.854,17.627V6.419a.211.211,0,0,1,.231-.233h2.945a.221.221,0,0,1,.231.233v.295a.221.221,0,0,1-.231.233H413.9a.221.221,0,0,0-.231.233V11.65a.221.221,0,0,0,.231.233h2.127a.221.221,0,0,1,.231.233v.295a.218.218,0,0,1-.231.233H413.9a.221.221,0,0,0-.231.233v4.747a.211.211,0,0,1-.23.233h-.353a.218.218,0,0,1-.231-.233Zm4.931-8.7a.567.567,0,0,1,.569-.594.594.594,0,0,1,0,1.188.556.556,0,0,1-.569-.594m.184,8.7v-6.68a.211.211,0,0,1,.231-.233h.311a.221.221,0,0,1,.23.233v6.68a.211.211,0,0,1-.23.233H418.2a.221.221,0,0,1-.231-.233m2.682,0v-6.68a.211.211,0,0,1,.231-.233h.249a.221.221,0,0,1,.231.233v.233c0,.062.028.076.061.076.136,0,.4-.622,1.308-.622,1.1,0,1.788.717,1.788,2.072v4.922a.211.211,0,0,1-.231.233h-.31a.221.221,0,0,1-.231-.233V12.99c0-1.107-.4-1.606-1.124-1.606-1.016,0-1.2.979-1.2,1.606v4.637a.211.211,0,0,1-.23.233h-.311a.221.221,0,0,1-.23-.233Zm5.533-1.758V12.71c0-1.354.71-2.072,1.8-2.072.908,0,1.172.622,1.313.622.028,0,.061-.014.061-.076v-.233a.211.211,0,0,1,.231-.233h.249a.221.221,0,0,1,.231.233v6.68a.211.211,0,0,1-.231.233h-.249a.221.221,0,0,1-.231-.233v-.247c0-.062-.033-.076-.061-.076-.137,0-.4.637-1.313.637-1.1,0-1.8-.717-1.8-2.072Zm3.115-.28v-2.6c0-.622-.2-1.606-1.219-1.606-.71,0-1.125.5-1.125,1.606v2.6c0,1.107.419,1.6,1.125,1.6,1.016,0,1.219-.979,1.219-1.6m2.541,2.038v-6.68a.211.211,0,0,1,.23-.233h.249a.221.221,0,0,1,.23.233v.233c0,.062.028.076.061.076.136,0,.4-.622,1.308-.622,1.1,0,1.788.717,1.788,2.072v4.922a.211.211,0,0,1-.23.233h-.311a.221.221,0,0,1-.231-.233V12.99c0-1.107-.4-1.606-1.124-1.606-1.016,0-1.2.979-1.2,1.606v4.637a.211.211,0,0,1-.231.233h-.31a.221.221,0,0,1-.231-.233Zm5.528-1.758V12.71a1.947,1.947,0,1,1,3.886,0v.342a.221.221,0,0,1-.23.233h-.311a.211.211,0,0,1-.231-.233c0-1.15-.433-1.668-1.172-1.668s-1.172.451-1.172,1.606v2.6c0,1.15.433,1.6,1.172,1.6s1.172-.513,1.172-1.668a.211.211,0,0,1,.231-.233h.311a.221.221,0,0,1,.23.233v.342a1.947,1.947,0,1,1-3.886,0Zm5.3-.062v-3.1a1.947,1.947,0,1,1,3.886,0v1.463a.221.221,0,0,1-.23.233h-2.654a.218.218,0,0,0-.231.233v.888c0,1.15.433,1.668,1.172,1.668s1.172-.594,1.172-1.649a.209.209,0,0,1,.23-.233h.311a.221.221,0,0,1,.23.233v.309a1.853,1.853,0,0,1-1.943,2.086A1.876,1.876,0,0,1,442.669,15.807Zm2.865-2.1a.221.221,0,0,0,.231-.233v-.527c0-1.107-.433-1.558-1.157-1.558s-1.172.451-1.172,1.558v.527a.221.221,0,0,0,.231.233h1.868Zm4.945-2.756a.211.211,0,0,1,.231-.233h.522a.211.211,0,0,0,.231-.233V8.324a1.875,1.875,0,0,1,1.943-2.133.211.211,0,0,1,.231.233V6.7a.211.211,0,0,1-.231.233c-.739,0-1.172.513-1.172,1.668v1.882a.211.211,0,0,0,.231.233h.941a.221.221,0,0,1,.231.233V11.2a.211.211,0,0,1-.231.233h-.941a.221.221,0,0,0-.231.233v5.963a.221.221,0,0,1-.23.233h-.311a.211.211,0,0,1-.23-.233V11.664a.221.221,0,0,0-.231-.233h-.522a.221.221,0,0,1-.231-.233Zm4.084,4.918V12.71a1.947,1.947,0,1,1,3.886,0v3.16a1.947,1.947,0,1,1-3.886,0m3.115-.28v-2.6c0-1.15-.433-1.606-1.172-1.606s-1.172.451-1.172,1.606v2.6c0,1.15.433,1.6,1.172,1.6s1.172-.451,1.172-1.6m2.418,2.038v-6.68a.211.211,0,0,1,.23-.233h.249a.221.221,0,0,1,.231.233v.266c0,.062.028.076.061.076a2.124,2.124,0,0,1,1.449-.656.209.209,0,0,1,.231.233v.375a.2.2,0,0,1-.231.219c-.941-.124-1.449.466-1.449,1.606v4.561a.211.211,0,0,1-.231.233h-.311A.221.221,0,0,1,460.1,17.627Zm-47.243,18V24.417a.211.211,0,0,1,.231-.233h2.033A2.175,2.175,0,0,1,417.4,26.5v7.037a2.175,2.175,0,0,1-2.282,2.319h-2.033a.218.218,0,0,1-.231-.233m2.268-.561c.861,0,1.449-.575,1.449-1.791V26.764c0-1.216-.588-1.791-1.449-1.791H413.9a.221.221,0,0,0-.231.233v9.621a.221.221,0,0,0,.231.233h1.219Zm3.929-1.259v-3.1a1.947,1.947,0,1,1,3.886,0v1.463a.221.221,0,0,1-.231.233h-2.654a.218.218,0,0,0-.231.233v.888c0,1.15.433,1.668,1.172,1.668s1.172-.594,1.172-1.649a.209.209,0,0,1,.23-.233h.311a.221.221,0,0,1,.231.233v.309a1.853,1.853,0,0,1-1.943,2.086A1.876,1.876,0,0,1,419.05,33.805Zm2.865-2.1a.221.221,0,0,0,.231-.233v-.527c0-1.107-.433-1.558-1.158-1.558s-1.171.451-1.171,1.558v.527a.221.221,0,0,0,.23.233h1.868Zm3.6,3.906-1.571-6.633c-.061-.266.108-.266.263-.266h.184c.2,0,.278,0,.339.233l1.11,4.9a.078.078,0,0,0,.155,0l1.11-4.9c.047-.233.136-.233.339-.233h.2c.155,0,.325,0,.264.266l-1.59,6.633c-.061.233-.122.247-.311.247h-.2c-.184,0-.231-.014-.292-.247Zm3.406-1.805v-3.1a1.947,1.947,0,1,1,3.886,0v1.463a.221.221,0,0,1-.231.233h-2.654a.218.218,0,0,0-.23.233v.888c0,1.15.433,1.668,1.171,1.668s1.172-.594,1.172-1.649a.209.209,0,0,1,.231-.233h.31a.221.221,0,0,1,.231.233v.309a1.853,1.853,0,0,1-1.943,2.086A1.876,1.876,0,0,1,428.926,33.805Zm2.865-2.1a.221.221,0,0,0,.231-.233v-.527c0-1.107-.433-1.558-1.157-1.558s-1.171.451-1.171,1.558v.527a.221.221,0,0,0,.23.233h1.868Zm2.8,3.92V24.417a.211.211,0,0,1,.23-.233h.311a.221.221,0,0,1,.231.233V35.625a.211.211,0,0,1-.231.233h-.311a.221.221,0,0,1-.23-.233m2.559-1.758v-3.16a1.947,1.947,0,1,1,3.886,0v3.16a1.947,1.947,0,1,1-3.886,0m3.115-.28v-2.6c0-1.15-.433-1.606-1.172-1.606s-1.172.451-1.172,1.606v2.6c0,1.15.433,1.6,1.172,1.6s1.172-.451,1.172-1.6m2.418,5.93V28.945a.221.221,0,0,1,.231-.233h.249a.211.211,0,0,1,.231.233v.233c0,.062.028.076.061.076.136,0,.386-.622,1.294-.622,1.1,0,1.8.717,1.8,2.072v3.16c0,1.354-.692,2.072-1.774,2.072-.927,0-1.124-.637-1.266-.637-.033,0-.061.014-.061.076v4.143a.211.211,0,0,1-.23.233h-.31a.221.221,0,0,1-.231-.233Zm3.1-5.93v-2.6c0-1.107-.4-1.606-1.124-1.606-1.016,0-1.2.979-1.2,1.606v2.6c0,.622.184,1.6,1.2,1.6.725,0,1.124-.5,1.124-1.6m2.428,2.038v-6.68a.211.211,0,0,1,.231-.233h.249a.221.221,0,0,1,.231.233v.233c0,.062.028.076.061.076.137,0,.414-.622,1.327-.622a1.71,1.71,0,0,1,1.327.608c.033.033.094.109.169.109s.136-.076.169-.109a1.911,1.911,0,0,1,1.416-.608c1.124,0,1.807.717,1.807,2.072v4.922a.211.211,0,0,1-.23.233h-.311a.221.221,0,0,1-.23-.233V30.988c0-1.107-.414-1.606-1.124-1.606-1.016,0-1.219.979-1.219,1.606v4.637a.216.216,0,0,1-.245.233h-.292a.221.221,0,0,1-.231-.233V30.988c0-1.107-.4-1.606-1.124-1.606-1.016,0-1.2.979-1.2,1.606v4.637a.211.211,0,0,1-.231.233h-.311a.221.221,0,0,1-.231-.233Zm8.643-1.82v-3.1a1.947,1.947,0,1,1,3.886,0v1.463a.221.221,0,0,1-.23.233h-2.654a.218.218,0,0,0-.231.233v.888c0,1.15.433,1.668,1.172,1.668s1.172-.594,1.172-1.649a.209.209,0,0,1,.23-.233h.311a.221.221,0,0,1,.23.233v.309a1.853,1.853,0,0,1-1.943,2.086A1.875,1.875,0,0,1,456.86,33.805Zm2.865-2.1a.221.221,0,0,0,.23-.233v-.527c0-1.107-.433-1.558-1.157-1.558s-1.172.451-1.172,1.558v.527a.221.221,0,0,0,.231.233h1.868Zm2.668,3.92v-6.68a.211.211,0,0,1,.23-.233h.249a.221.221,0,0,1,.23.233v.233c0,.062.028.076.061.076.136,0,.4-.622,1.308-.622,1.1,0,1.788.717,1.788,2.072v4.922a.211.211,0,0,1-.231.233h-.311a.221.221,0,0,1-.23-.233V30.988c0-1.107-.4-1.606-1.125-1.606-1.016,0-1.2.979-1.2,1.606v4.637a.211.211,0,0,1-.231.233h-.31a.221.221,0,0,1-.23-.233Zm5.053-6.68a.221.221,0,0,1,.231-.233h.522a.221.221,0,0,0,.23-.233v-1.34a.211.211,0,0,1,.231-.233h.311a.221.221,0,0,1,.23.233v1.34a.221.221,0,0,0,.231.233h.922a.209.209,0,0,1,.23.233v.247a.221.221,0,0,1-.23.233h-.922a.221.221,0,0,0-.231.233v3.782c0,1.15.433,1.668,1.172,1.668a.211.211,0,0,1,.231.233v.28a.211.211,0,0,1-.231.233,1.876,1.876,0,0,1-1.943-2.133V29.657a.221.221,0,0,0-.23-.233h-.522a.211.211,0,0,1-.231-.233Zm-54.592,13.47a.211.211,0,0,1,.231-.233h.353a.218.218,0,0,1,.231.233V52.863a.221.221,0,0,0,.23.233h2.127a.221.221,0,0,1,.231.233v.295a.221.221,0,0,1-.231.233h-2.945a.218.218,0,0,1-.23-.233V42.415Zm4.5,9.45v-3.16c0-1.354.71-2.072,1.8-2.072.908,0,1.172.622,1.313.622.028,0,.061-.014.061-.076v-.233a.211.211,0,0,1,.23-.233h.249a.221.221,0,0,1,.23.233v6.68a.211.211,0,0,1-.23.233h-.249a.221.221,0,0,1-.23-.233v-.247c0-.062-.033-.076-.061-.076-.136,0-.4.637-1.313.637-1.1,0-1.8-.717-1.8-2.072Zm3.115-.28v-2.6c0-.622-.2-1.606-1.219-1.606-.71,0-1.124.5-1.124,1.606v2.6c0,1.107.419,1.6,1.124,1.6,1.016,0,1.219-.979,1.219-1.6m2.682,2.038V42.415a.211.211,0,0,1,.23-.233h.311a.221.221,0,0,1,.23.233v4.747c0,.062.033.076.061.076.137,0,.447-.608,1.247-.608,1.1,0,1.788.717,1.788,2.072v3.16c0,1.354-.711,2.072-1.8,2.072-.908,0-1.157-.637-1.294-.637-.028,0-.061.014-.061.076v.247a.211.211,0,0,1-.23.233h-.249a.221.221,0,0,1-.23-.233Zm3.1-2.038v-2.6c0-1.107-.4-1.606-1.125-1.606-1.016,0-1.2.979-1.2,1.606v2.6c0,.622.184,1.6,1.2,1.6.725,0,1.125-.5,1.125-1.6" transform="translate(-218.603 -3.247)" fill="#c79461"/>
  <path id="Tracé_3" data-name="Tracé 3" d="M166.675,3.286H196.02a2.078,2.078,0,0,1,2.066,2.086v9.013a2.078,2.078,0,0,1-2.066,2.086H182.112a4.381,4.381,0,0,0-4.357,4.4v5.645a4.381,4.381,0,0,0,4.357,4.4h9.626A2.078,2.078,0,0,1,193.8,33v9.1a2.078,2.078,0,0,1-2.065,2.086h-9.626a4.381,4.381,0,0,0-4.357,4.4V70.968a2.078,2.078,0,0,1-2.065,2.086h-9.015a2.078,2.078,0,0,1-2.066-2.086V5.372a2.078,2.078,0,0,1,2.066-2.086m91.555,2.086v65.6a2.078,2.078,0,0,0,2.066,2.086h29.689a2.079,2.079,0,0,0,2.065-2.086V61.941a2.079,2.079,0,0,0-2.065-2.086H275.694a4.381,4.381,0,0,1-4.357-4.4V5.372a2.078,2.078,0,0,0-2.066-2.086h-8.977a2.078,2.078,0,0,0-2.066,2.086m-52.809.542V70.735a2.46,2.46,0,0,0,2.447,2.471h16.642a21.945,21.945,0,0,0,21.836-22.051V25.489A21.945,21.945,0,0,0,224.508,3.438H207.867a2.46,2.46,0,0,0-2.447,2.471ZM221.9,16.87h2.084a9.542,9.542,0,0,1,9.495,9.588v24.2a9.542,9.542,0,0,1-9.495,9.588H221.9a3.375,3.375,0,0,1-3.359-3.392V20.262A3.375,3.375,0,0,1,221.9,16.87" transform="translate(-87.161 -1.725)" fill="#385866"/>
</svg>
