<?xml version="1.0" encoding="utf-8"?>
<!-- Generator: Adobe Illustrator 26.3.1, SVG Export Plug-In . SVG Version: 6.00 Build 0)  -->
<svg version="1.1" id="Calque_1" xmlns="http://www.w3.org/2000/svg" xmlns:xlink="http://www.w3.org/1999/xlink" x="0px" y="0px"
	 viewBox="0 0 438 126" style="enable-background:new 0 0 438 126;" xml:space="preserve">
<style type="text/css">
	.st0{fill:#FFFFFF;}
</style>
<g>
	<g>
		<g>
			<path class="st0" d="M105.2,117.8c-12.6,9-24.4,9.5-34.3,1.6c2.8,1.4,6,2.1,9.1,2.1c4.5,0,9.7-1.3,15.7-4.6
				c17.2-9.3,17.3-21.8,14.3-30.7c-1.1-3.2-2.7-6.4-4.9-9.6c1.6-0.9,3.2-2,4.6-3.4c2.8,3.3,5.2,6.6,6.8,10
				C122.7,96,118.8,108,105.2,117.8L105.2,117.8z M44.8,96.5c0.9,4.1,2.9,8.5,7.5,11.5c-5.9-2.2-9.8-5.7-11.6-10.4
				C42,97.3,43.4,96.9,44.8,96.5L44.8,96.5z M25.7,98.1C11.2,97,2.8,87.7,1.2,71.3c-1.5-14.9,3.9-25.1,15.5-29.7
				C11.4,45.4,7.3,52.1,7,63.5C6.5,82.8,17.3,89,26.5,90.8c3.7,0.7,7.8,0.9,12.1,0.5c0,1.8,0.3,3.7,0.8,5.6
				C34.6,98,29.9,98.4,25.7,98.1L25.7,98.1z M49.6,25.1c0.6,0,1.1,0.1,1.7,0.1c-0.4,1.4-0.8,2.8-1.2,4.1c-3.9-1.2-8.6-1.4-13.2,0.9
				C41.1,26.9,45.3,25.1,49.6,25.1L49.6,25.1z M58.2,12.7c8.3-12,20.7-14.8,35.9-7.9c13.6,6.1,19.9,15.6,18.5,27.5
				c-0.9-6.2-4.7-12.9-14.3-18.7C81.6,3.6,70.7,9.9,64.4,17c-2.3,2.6-4.4,5.8-6.2,9.5c-1.7-0.9-3.6-1.6-5.6-2
				C54,20.1,55.9,16.1,58.2,12.7L58.2,12.7z M101.5,71.7c1.4-0.7,2.6-1.6,3.9-2.5c0.1-0.1,0.2-0.2,0.4-0.3c1.2,1.1,2.3,2.2,3.3,3.4
				c-1.3,1.3-2.8,2.4-4.5,3.4C103.6,74.4,102.5,73,101.5,71.7z M103.1,76.5c-1.4,0.7-3,1.2-4.6,1.7c-0.7-1.4-1.5-2.7-2.3-4
				c1.5-0.6,3-1.2,4.5-2c1.1,1.3,2.1,2.6,3.1,4C103.5,76.3,103.3,76.4,103.1,76.5z M48.9,95.2c0.3,1.9,0.8,3.7,1.4,5.4
				c1,2.7,2.5,5.6,4.9,7.9c-5.1-2.4-8.3-6.5-9.5-12.3C46.7,96,47.8,95.6,48.9,95.2L48.9,95.2z M45.4,94.7c-0.2-1.4-0.3-2.8-0.2-4.2
				c1.1-0.2,2.2-0.4,3.2-0.7c0.1,1.6,0.2,3.1,0.4,4.5c-1.1,0.4-2.2,0.7-3.3,1.1C45.5,95.2,45.4,95,45.4,94.7L45.4,94.7z M44.2,90.7
				L44.2,90.7L44.2,90.7L44.2,90.7z M44.5,94.9c0,0.3,0.1,0.6,0.1,0.8c-1.4,0.4-2.8,0.8-4.3,1.1c-0.6-1.8-0.8-3.6-0.8-5.5
				c1.6-0.2,3.2-0.4,4.7-0.6C44.2,92.1,44.3,93.5,44.5,94.9z M39.6,89.2c0.1-1.4,0.4-2.8,0.7-4.3c1.5,0,2.9,0,4.4,0
				c-0.3,1.6-0.4,3.3-0.5,4.9c-1.6,0.3-3.1,0.5-4.7,0.6C39.5,90,39.6,89.6,39.6,89.2L39.6,89.2z M29.4,36.7
				c-0.1,0.1-0.2,0.3-0.3,0.4c-0.2,0-0.4,0-0.6,0.1c0.1-0.1,0.2-0.2,0.3-0.3C28.9,36.8,29.1,36.8,29.4,36.7L29.4,36.7z M49.1,33.8
				c-1.5-0.5-3.1-0.9-4.7-1.2c-3-0.5-6.3-0.7-9.7,0.2c3-2.2,6.3-3.3,9.8-3.3c1.7,0,3.5,0.3,5.4,0.8C49.6,31.5,49.3,32.6,49.1,33.8
				L49.1,33.8z M52.2,31.1c1.1,0.4,2.2,1,3.3,1.6c-0.4,1.1-0.8,2.2-1.1,3.3c-1.4-0.7-2.8-1.3-4.3-1.8c0.2-1.2,0.5-2.4,0.8-3.5
				C51.2,30.8,51.7,30.9,52.2,31.1L52.2,31.1z M55.8,31.9c-1.1-0.6-2.1-1.1-3.3-1.6c-0.5-0.2-1-0.4-1.5-0.6c0.4-1.5,0.8-2.9,1.2-4.3
				c1.8,0.3,3.7,1,5.5,1.9C57,28.8,56.4,30.3,55.8,31.9L55.8,31.9z M60.1,28.7c1.1,0.7,2.1,1.6,3.1,2.5c-0.8,1.3-1.6,2.6-2.3,4
				c-1.4-1.1-2.8-2-4.3-2.9c0.6-1.6,1.2-3.1,1.9-4.5C59.1,28.1,59.6,28.4,60.1,28.7L60.1,28.7z M98.5,68.3c1.3-0.8,2.5-1.6,3.7-2.6
				c1,0.8,1.9,1.7,2.8,2.5c-0.1,0.1-0.2,0.1-0.2,0.2c-1.2,0.9-2.5,1.7-3.9,2.5C100.1,70.1,99.3,69.2,98.5,68.3L98.5,68.3z M94,70.9
				c1.3-0.7,2.6-1.3,3.8-2.1c0.8,0.9,1.6,1.7,2.3,2.6c-1.4,0.7-2.9,1.4-4.4,1.9C95.1,72.6,94.5,71.7,94,70.9L94,70.9z M90.7,74.9
				c-0.3-0.7-0.6-1.4-1-2.1c1.1-0.5,2.2-1,3.3-1.5c0.6,0.8,1.1,1.6,1.6,2.4C93.4,74.2,92.1,74.6,90.7,74.9L90.7,74.9z M92.5,79.3
				c-0.4-1.2-0.9-2.4-1.4-3.6c1.4-0.4,2.8-0.8,4.1-1.3c0.8,1.3,1.6,2.6,2.3,3.9C95.8,78.8,94.2,79.1,92.5,79.3L92.5,79.3z M69.6,114
				c1.8,0,3.8-0.2,6-0.5c16.1-2.7,19.6-12.6,19.6-20.3c0-4.1-0.8-8.4-2.4-12.9c1.7-0.2,3.4-0.5,5.1-1c1.8,3.6,3.1,7.1,3.7,10.6
				c2,11.4-3.6,19.9-16.4,24.5c-7.5,2.7-14,2.8-19.3,0.3c-0.3-0.3-0.6-0.7-0.8-1C66.5,113.8,68,114,69.6,114L69.6,114z M51.5,93.3
				c-0.6,0.2-1.2,0.5-1.9,0.7c-0.2-1.5-0.3-2.9-0.4-4.4c0.5-0.1,1.1-0.3,1.6-0.4C51,90.6,51.2,92,51.5,93.3z M49.3,84.5
				c0.4,0,0.8-0.1,1.1-0.1c0.1,1.3,0.2,2.7,0.3,4c-0.5,0.1-1,0.3-1.6,0.4C49.2,87.4,49.2,85.9,49.3,84.5L49.3,84.5z M48.4,84.6
				L48.4,84.6L48.4,84.6z M48.3,89c-1,0.2-2.1,0.5-3.2,0.7c0.1-1.6,0.2-3.2,0.5-4.8c0.9,0,1.8-0.1,2.7-0.2
				C48.3,86.1,48.3,87.5,48.3,89z M46.8,79.7c0.7,0.1,1.3,0.1,2,0.2c-0.2,1.3-0.3,2.6-0.4,3.9c-0.9,0.1-1.8,0.1-2.6,0.2
				C46.1,82.5,46.4,81.1,46.8,79.7z M42.3,79.1L42.3,79.1L42.3,79.1L42.3,79.1z M45.9,79.6c-0.4,1.4-0.7,2.9-1,4.4
				C43.4,84,42,84,40.6,84c0.5-1.7,1-3.3,1.7-4.9C43.5,79.3,44.7,79.4,45.9,79.6z M28.3,38.1c-0.1,0-0.3,0-0.4,0L28.3,38.1
				L28.3,38.1L28.3,38.1L28.3,38.1z M48.5,37c-4.3-1.3-8.5-2.1-12.3-2.1h0c-1.3,0-2.7,0.1-4.1,0.3c0.2-0.2,0.4-0.4,0.5-0.6
				c2.3-1,4.7-1.5,7.2-1.5c1.4,0,2.9,0.1,4.4,0.4c1.5,0.3,3.1,0.7,4.7,1.3C48.8,35.5,48.7,36.2,48.5,37L48.5,37z M53.5,38.7
				c-1.3-0.5-2.7-1-4-1.5c0.1-0.7,0.2-1.4,0.4-2.2c1.4,0.5,2.8,1.2,4.2,1.9C53.9,37.5,53.7,38.1,53.5,38.7L53.5,38.7z M58.2,40.8
				c-1.3-0.6-2.6-1.2-3.8-1.7c0.2-0.6,0.3-1.2,0.5-1.7c1.3,0.7,2.6,1.4,3.9,2.2C58.6,40,58.4,40.4,58.2,40.8L58.2,40.8z M59.2,38.7
				L59.2,38.7L59.2,38.7L59.2,38.7z M55.2,36.4c0.3-1.1,0.7-2.2,1.1-3.2c1.4,0.9,2.8,1.9,4.2,2.9c-0.4,0.8-0.9,1.7-1.3,2.6
				C57.9,37.9,56.6,37.1,55.2,36.4L55.2,36.4z M64.5,39.7L64.5,39.7L64.5,39.7L64.5,39.7z M63.3,41.5c-1.1-0.8-2.2-1.6-3.4-2.3
				c0.4-0.9,0.8-1.7,1.2-2.5c1.2,1,2.3,2,3.4,3C64.1,40.3,63.7,40.9,63.3,41.5z M105.9,33.1c-10.4-12.4-20.7-10.4-27.6-6.5
				c-3.6,2-7,5-10.2,8.7c-1.1-1.4-2.4-2.8-3.7-4.1c2.3-3.4,4.8-6.4,7.5-8.6c9-7.5,19.3-7,29.6,1.6c5.6,4.6,8.8,9.6,9.7,14.8
				c-0.2,0.5-0.4,1.1-0.6,1.6C109.6,38.2,108,35.7,105.9,33.1L105.9,33.1z M100.5,63.1c3.6-3.2,6.5-6.5,8.6-10.1
				c0.8-1.3,1.5-2.8,2-4.4c0,0,0,0.1,0,0.1c0.1,0.3,0.2,0.6,0.2,0.9c-0.3,3.8-1.9,7.5-4.9,10.9c-1.2,1.4-2.7,2.8-4.2,4
				C101.7,64.1,101.1,63.6,100.5,63.1z M96.6,66.3c1.1-0.8,2.2-1.7,3.2-2.5c0.6,0.5,1.2,1,1.8,1.5c-1.2,0.9-2.4,1.7-3.6,2.5
				C97.5,67.2,97,66.8,96.6,66.3L96.6,66.3z M92.6,69.1c1.1-0.7,2.1-1.4,3.2-2.2c0.4,0.4,0.9,0.9,1.3,1.3c-1.2,0.7-2.4,1.4-3.7,2
				C93.2,69.8,92.9,69.4,92.6,69.1z M88.9,71.3c1-0.6,2-1.1,2.9-1.7c0.3,0.3,0.5,0.7,0.8,1c-1.1,0.5-2.1,1-3.2,1.5
				C89.2,71.8,89.1,71.6,88.9,71.3L88.9,71.3z M86.6,75.9L86.6,75.9L86.6,75.9L86.6,75.9z M86.1,74.3c0.9-0.3,1.8-0.7,2.7-1
				c0.3,0.6,0.6,1.3,0.9,1.9c-1,0.3-2.1,0.5-3.1,0.7C86.4,75.4,86.2,74.8,86.1,74.3z M87.5,79.7c-0.2-1-0.4-2-0.7-3
				c1.1-0.2,2.2-0.5,3.3-0.7c0.5,1.1,1,2.3,1.4,3.4C90.2,79.6,88.8,79.7,87.5,79.7L87.5,79.7z M63.6,111.6c0.6,0.1,1.2,0.1,1.8,0.1
				c0.5,0,1.1,0,1.6,0c14.3,0,19.2-8.2,20.7-15.2c1-4.7,0.9-10.2-0.2-16c1.4,0,2.8-0.1,4.2-0.3c1.6,4.5,2.5,8.8,2.5,12.8
				c-0.1,10.7-6.6,17.4-18.9,19.5c-4.2,0.7-7.9,0.7-11.2-0.1C64,112.2,63.8,111.9,63.6,111.6L63.6,111.6z M53.1,93.7L53.1,93.7
				L53.1,93.7L53.1,93.7z M60.4,110c-0.2,0-0.4,0-0.5-0.1c-1.1-1.2-2.1-2.6-2.9-4.1c-2-3.4-3.4-7.5-4.4-12.1
				c0.2-0.1,0.4-0.1,0.6-0.2C54.9,100.1,57.3,105.6,60.4,110z M51.9,89c0.3,1.3,0.6,2.6,0.9,3.9c-0.2,0.1-0.3,0.1-0.5,0.2
				c-0.2-1.3-0.4-2.7-0.6-4L51.9,89z M48.1,75.4c0.3,0.1,0.6,0.1,1,0.2c0.1,0.4,0.2,0.9,0.2,1.3c-0.1,0.7-0.2,1.3-0.3,2
				c-0.6,0-1.3-0.1-1.9-0.2C47.4,77.7,47.7,76.5,48.1,75.4L48.1,75.4z M44.5,74.4c0.9,0.3,1.8,0.6,2.7,0.8c-0.4,1.2-0.8,2.3-1.1,3.5
				c-1.2-0.1-2.4-0.3-3.5-0.5C43.2,76.9,43.8,75.7,44.5,74.4L44.5,74.4z M30.9,36.9c0.2-0.2,0.3-0.4,0.5-0.7
				c1.6-0.3,3.2-0.5,4.9-0.5h0c3.8,0,7.9,0.8,12.1,2.1c0,0.3-0.1,0.6-0.1,0.8C42,37.2,36.1,36.5,30.9,36.9z M53.2,40
				c-1.3-0.4-2.6-0.8-3.9-1.1c0-0.3,0.1-0.5,0.1-0.8c1.3,0.4,2.6,0.9,3.9,1.5L53.2,40L53.2,40z M54.1,40.3l0.1-0.3
				c1.2,0.5,2.3,1,3.5,1.6L57,41.4C56,41,55.1,40.6,54.1,40.3z M63.2,43.3c0.1-0.1,0.2-0.3,0.2-0.4c0.4,0.3,0.7,0.6,1.1,0.9
				C64.1,43.6,63.6,43.4,63.2,43.3z M67.7,43L67.7,43L67.7,43L67.7,43z M66.6,44.1c-0.9-0.7-1.7-1.4-2.6-2.1
				c0.4-0.6,0.8-1.1,1.2-1.6c0.9,0.9,1.7,1.7,2.5,2.6C67.3,43.3,67,43.7,66.6,44.1z M70.6,40.3c-0.7,0.7-1.5,1.3-2.2,2
				c-0.9-0.9-1.7-1.9-2.6-2.7c0.7-1,1.5-2,2.3-2.9C69,37.8,69.8,39,70.6,40.3L70.6,40.3z M109.7,42.8c-7.2-13.6-17.3-13.8-24.4-11.5
				c-4.7,1.5-9.4,4.4-14,8.3c-0.8-1.3-1.7-2.5-2.6-3.8c3.1-3.6,6.5-6.6,10.1-8.6c9.4-5.3,18.6-3.1,26.5,6.3c2.3,2.7,3.9,5.4,4.9,8.1
				C110,42.1,109.8,42.5,109.7,42.8C109.7,42.9,109.7,42.9,109.7,42.8L109.7,42.8z M99,61.9L99,61.9L99,61.9L99,61.9z M110.2,46.7
				c0.1,0.3,0.3,0.5,0.4,0.8c-0.6,1.8-1.3,3.5-2.3,5.1c-2,3.5-4.9,6.8-8.5,10c-0.3-0.2-0.5-0.4-0.8-0.6
				C103.9,57,107.8,51.9,110.2,46.7L110.2,46.7z M98.4,62.6c0.2,0.2,0.5,0.4,0.7,0.6c-1,0.9-2,1.7-3.1,2.5c-0.1-0.1-0.3-0.3-0.4-0.4
				C96.5,64.4,97.4,63.5,98.4,62.6z M94.8,65.9c0.1,0.1,0.2,0.2,0.3,0.3c-1,0.7-2,1.4-3.1,2.1L92,68.2
				C92.9,67.5,93.9,66.7,94.8,65.9L94.8,65.9z M85.6,76.1c-0.7,0.1-1.5,0.2-2.2,0.3c0-0.2,0-0.4-0.1-0.6c0.3-0.3,0.7-0.6,1-0.8
				c0.3-0.1,0.5-0.2,0.8-0.3C85.3,75.1,85.4,75.6,85.6,76.1L85.6,76.1z M83.6,79.7c0-0.8-0.1-1.6-0.2-2.4c0.8-0.1,1.6-0.2,2.4-0.4
				c0.2,0.9,0.5,1.9,0.7,2.8C85.5,79.8,84.6,79.8,83.6,79.7L83.6,79.7z M54.4,93.1c7.8-3.3,15.7-7.8,23-13c1.8,0.2,3.6,0.3,5.3,0.4
				c0.2,7.3-0.7,14-3.2,19.1c-3.4,7.2-9.2,10.7-16.9,10.5C59.4,105.3,56.6,99.5,54.4,93.1L54.4,93.1z M52.1,84.1L52.1,84.1
				c6.4-0.9,13.1-2.5,19.5-4.8c0.5,0.1,1,0.2,1.4,0.3c-6.6,3.5-13.5,6.3-20.2,8.2c-0.1-0.3-0.2-0.5-0.2-0.8
				C52.4,86.1,52.2,85.1,52.1,84.1L52.1,84.1z M48.9,74.7c-0.2,0-0.3-0.1-0.5-0.1c0.1-0.3,0.2-0.6,0.3-0.8
				C48.8,74.1,48.8,74.4,48.9,74.7z M46.5,71c0.7,0.3,1.3,0.6,2,1c0,0,0,0.1,0,0.1c-0.3,0.8-0.7,1.6-0.9,2.4
				c-0.9-0.2-1.8-0.5-2.6-0.8C45.4,72.7,45.9,71.9,46.5,71L46.5,71z M30.2,58c3.4,4.8,8.9,9.1,15.5,12.6c-0.6,0.9-1.1,1.8-1.6,2.7
				c-5.7-1.9-10.6-4.5-14.2-7.7c-7.5-6.8-8.2-15.5-2-25.3C24.8,47.4,27.1,53.6,30.2,58L30.2,58z M30.2,38c0,0,0-0.1,0.1-0.1
				c1.2-0.1,2.4-0.2,3.7-0.2c3,0,6.1,0.3,9.3,0.9C38.6,38,34.3,37.8,30.2,38z M33.3,38.8c4.7,0,9.7,0.5,14.8,1.5
				c-1,8.1-1.1,17-0.3,26.3c0,0.3,0.1,0.5,0.1,0.8c-0.6,0.8-1.2,1.7-1.7,2.5c-6.5-3.5-11.9-7.7-15.2-12.4
				c-4.3-6.1-4.7-12.4-1.4-18.6C30.8,38.8,32.1,38.8,33.3,38.8L33.3,38.8z M57.5,42.6L57.5,42.6L57.5,42.6L57.5,42.6z M52,62
				c-0.4,0.5-0.7,0.9-1.1,1.4c0.3-7.5,1.2-14.9,2.9-21.8c1,0.3,2.1,0.5,3.1,0.8c0.2,0.1,0.4,0.1,0.6,0.2C55.1,48.6,53.2,55.2,52,62z
				 M69.8,45.5C69.8,45.5,69.7,45.6,69.8,45.5c-0.8-0.2-1.6-0.5-2.3-0.8l-0.1-0.1c0.3-0.3,0.6-0.7,0.9-1
				C68.8,44.2,69.3,44.9,69.8,45.5L69.8,45.5z M72.6,43.6c-0.7,0.4-1.3,0.9-2,1.3c-0.6-0.7-1.1-1.4-1.7-2c0.7-0.7,1.4-1.3,2.1-1.9
				C71.6,41.9,72.1,42.8,72.6,43.6L72.6,43.6z M92.2,36.2c-5.9,0.5-12.4,3.1-18.8,7c-0.5-0.9-1.1-1.9-1.6-2.8
				c4.5-3.8,9.2-6.8,13.8-8.2c9.4-3,17.2,0.4,22.7,9.8C103.5,36.7,97.3,35.7,92.2,36.2L92.2,36.2z M109.5,45.4
				c0.1,0.1,0.1,0.2,0.1,0.2c-2.1,4.9-5.6,9.8-10,14.5C103.7,55.3,107,50.3,109.5,45.4L109.5,45.4z M97.8,60.9
				c-6.3-4.7-13.7-9-21.9-12.7c-0.7-1.4-1.3-2.9-2.1-4.2c6.3-3.8,12.7-6.4,18.5-6.9c7.2-0.6,12.9,1.9,16.6,7.5
				C106.3,50,102.4,55.6,97.8,60.9z M83.9,74.2L83.9,74.2C83.9,74.2,83.9,74.2,83.9,74.2L83.9,74.2z M83.9,74.1L83.9,74.1z
				 M83.9,74.2L83.9,74.2L83.9,74.2C83.9,74.1,83.9,74.2,83.9,74.2z M75.8,78.1c-0.5,0.3-1,0.6-1.5,0.8c-0.4-0.1-0.8-0.1-1.2-0.2
				c0.5-0.2,1-0.4,1.6-0.6C75.1,78.1,75.5,78.1,75.8,78.1z M51.5,79.9c5.5,0.2,11.4-0.2,17.1-1.1c0.4,0.1,0.8,0.2,1.2,0.2
				c-6,2-12.1,3.5-17.9,4.3C51.8,82.2,51.6,81,51.5,79.9L51.5,79.9z M46.9,70.2c0.4-0.6,0.8-1.1,1.1-1.6c0.1,0.8,0.2,1.6,0.3,2.3
				C47.9,70.7,47.4,70.5,46.9,70.2z M49.8,66.1c0,0.9,0,1.9,0,2.8c-0.2,0.4-0.4,0.8-0.6,1.2c-0.1-0.9-0.2-1.8-0.3-2.8
				C49.2,66.9,49.5,66.5,49.8,66.1L49.8,66.1z M51.4,65.6c-0.2,0.4-0.4,0.8-0.6,1.2c0-0.7,0-1.3,0-2c0.3-0.4,0.6-0.8,0.9-1.2
				C51.6,64.3,51.5,64.9,51.4,65.6L51.4,65.6z M54.1,59.5c-0.3,0.4-0.6,0.7-1,1.1c1.2-6.2,3-12.2,5.2-17.8c1.1,0.4,2.2,0.9,3.3,1.3
				C58.7,48.9,56.1,54.1,54.1,59.5z M71.2,47.3c0.2,0.2,0.3,0.5,0.5,0.7c-0.5-0.3-1-0.6-1.5-0.8l-0.5-0.5l0,0
				C70.2,46.9,70.7,47.1,71.2,47.3L71.2,47.3z M71.9,46.5c-0.2-0.3-0.5-0.6-0.7-0.9c0.6-0.4,1.2-0.8,1.8-1.2
				c0.6,1.1,1.1,2.1,1.6,3.2C73.7,47.2,72.8,46.9,71.9,46.5z M75.8,50.3c-0.6-0.4-1.3-0.7-1.9-1.1c-0.3-0.4-0.6-0.8-0.8-1.2
				c0.8,0.3,1.5,0.6,2.2,1C75.5,49.4,75.6,49.9,75.8,50.3z M78.9,55.9c4.4,3.8,8.4,8,11.8,12.3c-0.8,0.6-1.6,1.3-2.4,1.9
				c-2.5-4.6-5.6-9.1-9.1-13.4C79.1,56.4,79,56.1,78.9,55.9L78.9,55.9z M81.2,75.9c0.3-0.1,0.6-0.2,0.9-0.3
				c-0.5,0.4-1.1,0.8-1.6,1.2c-0.3,0-0.6,0.1-0.9,0.1C80.1,76.6,80.7,76.2,81.2,75.9L81.2,75.9z M65.1,45.7L65.1,45.7
				c-3.2,3.5-6.2,7.4-8.8,11.5c-0.2,0.2-0.3,0.4-0.5,0.5c1.9-4.6,4.1-9.1,6.7-13.2C63.3,44.9,64.2,45.3,65.1,45.7L65.1,45.7
				L65.1,45.7z M73.1,49.9C73.1,49.9,73,49.9,73.1,49.9L73.1,49.9L73.1,49.9z M76.9,52.9c-0.4-0.3-0.8-0.6-1.1-0.9
				c-0.2-0.3-0.4-0.6-0.6-1c0.4,0.3,0.9,0.6,1.3,0.8C76.6,52.2,76.8,52.5,76.9,52.9z M77.5,54.7C77.5,54.7,77.6,54.7,77.5,54.7
				L77.5,54.7C77.6,54.8,77.5,54.7,77.5,54.7z M67.5,47.2c-2.8,2.1-5.5,4.4-8,6.8c2-2.7,4.1-5.3,6.4-7.8
				C66.4,46.5,67,46.8,67.5,47.2L67.5,47.2z M80.3,59.8c2.6,3.4,5,7.1,7.1,10.9c-0.7,0.5-1.3,1-2,1.4C84.1,68,82.3,63.8,80.3,59.8
				L80.3,59.8z M83,73.5c-0.4-2.9-0.9-5.9-1.6-8.8c1.2,2.6,2.2,5.3,3.1,8c-0.1,0.1-0.2,0.1-0.3,0.2C83.9,73.1,83.4,73.3,83,73.5
				L83,73.5z M66,77.2c-5-1.2-9.9-2.9-14.5-4.8c0.1-1,0.2-2,0.3-2.9c0.6-2.2,1.2-4.3,2-6.4c1-1.8,2.1-3.6,3.2-5.3
				c3.5-3.7,7.4-7.1,11.4-10c1.2,0.8,2.4,1.6,3.6,2.5c1.6,1.6,3.2,3.3,4.7,5c1,1.8,2,3.6,3,5.4c1.2,4.4,2.2,8.8,2.7,13.3
				c-1.4,0.7-2.9,1.4-4.4,2c-2.1,0.5-4.2,1-6.3,1.4C69.6,77.4,67.8,77.3,66,77.2L66,77.2z M51.2,77.4c0-0.4,0-0.8,0.1-1.2
				c4.7,1,9.6,1.7,14.6,1.9c0.2,0,0.3,0.1,0.5,0.1c-5.1,0.7-10.1,1-14.9,0.8C51.4,78.5,51.3,78,51.2,77.4z M51.4,73.3
				c3.2,1.4,6.6,2.6,10.1,3.6c-3.4-0.3-6.8-0.9-10.2-1.6C51.4,74.6,51.4,74,51.4,73.3L51.4,73.3z M91.4,67.5
				c-3.7-4.6-8.1-9.2-13.2-13.5c-0.2-0.4-0.3-0.9-0.5-1.3c5.9,3.7,11.4,7.9,16.2,12.4C93.1,65.8,92.3,66.7,91.4,67.5z M94.6,64.3
				c-5-4.7-10.9-9.2-17.5-13.2c-0.2-0.5-0.4-1-0.6-1.5c7.4,3.4,14.5,7.5,20.7,12.1C96.3,62.6,95.4,63.4,94.6,64.3L94.6,64.3z
				 M52.8,41.3c-1.8,7-2.8,14.8-3,23v0.4c-0.3,0.4-0.7,0.9-1,1.3C48,57.3,48,48.6,49,40.4C50.3,40.7,51.6,41,52.8,41.3L52.8,41.3z
				 M75.8,79.1L75.8,79.1L75.8,79.1L75.8,79.1z M77.8,77.9c0.5,0,0.9-0.1,1.4-0.1c-0.7,0.5-1.3,1-1.9,1.5c-0.5-0.1-1-0.1-1.4-0.2
				C76.5,78.7,77.1,78.3,77.8,77.9z M53,88.6c7.2-2.1,14.5-5.1,21.5-8.9c0.5,0.1,1.1,0.1,1.6,0.2c-7.1,4.9-14.6,9.2-22,12.3
				C53.7,91.1,53.4,89.9,53,88.6L53,88.6z M82.7,79.7L82.7,79.7L82.7,79.7z M78.5,79.4c0.8-0.6,1.6-1.2,2.3-1.8
				c0.6-0.1,1.2-0.2,1.7-0.2c0.1,0.8,0.1,1.5,0.2,2.3C81.3,79.6,79.9,79.5,78.5,79.4z M86.9,96.4c-2.1,9.5-9,14.5-19.9,14.5h-0.1
				c7.3-1.2,11.3-6.1,13.5-10.8c2.5-5.3,3.5-12.1,3.2-19.5c1,0,2,0,3,0C87.7,86.3,88,91.8,86.9,96.4L86.9,96.4z M86.3,73.3
				c0.5-0.5,1.1-0.9,1.6-1.4c0,0,0.1-0.1,0.2-0.1c0.1,0.2,0.3,0.4,0.4,0.7C87.7,72.8,87,73,86.3,73.3z M91.3,68.9
				C91.2,68.9,91.1,69,91,69C91.1,69,91.2,68.9,91.3,68.9C91.3,68.8,91.3,68.9,91.3,68.9L91.3,68.9z M59,41.2
				c0.2-0.4,0.3-0.7,0.5-1.1c1.1,0.7,2.2,1.5,3.2,2.2c-0.1,0.2-0.3,0.4-0.4,0.6c0,0,0,0-0.1,0C61.2,42.3,60.1,41.7,59,41.2L59,41.2z
				 M27.6,39.1L27.6,39.1L27.6,39.1z M27.2,39.7c-8.3,12.9-3.4,21.6,2.1,26.5c3.6,3.3,8.6,5.9,14.4,7.9c-0.7,1.3-1.4,2.6-2,4
				c-4.9-0.9-9.3-2.3-12.9-4.4C19.6,68.3,17,59.4,21.3,48c1.3-3.5,3-6.4,5-8.7c0.4,0,0.9-0.1,1.3-0.1C27.5,39.3,27.4,39.5,27.2,39.7
				L27.2,39.7z M50.4,83.5c-0.3,0-0.7,0.1-1,0.1c0.1-1.2,0.2-2.5,0.3-3.8h0.1c0.2,0.8,0.4,1.6,0.6,2.4
				C50.4,82.7,50.4,83.1,50.4,83.5L50.4,83.5z M67.5,35.9c-0.8,1-1.6,2-2.4,3c-1.1-1.1-2.3-2.1-3.5-3.1c0.7-1.3,1.5-2.6,2.3-3.9
				C65.2,33.1,66.4,34.5,67.5,35.9z M23.3,39.7c0.5-0.1,1.1-0.2,1.7-0.3c-1.7,2.1-3.2,4.8-4.5,8.2c-5.7,15,1.2,22.9,7.9,26.8
				c3.6,2.1,8.1,3.6,13,4.4c-0.7,1.6-1.3,3.3-1.7,5c-4.3-0.2-8.4-0.9-11.9-2.1c-10.9-4-15.5-13-13.2-26.1
				C15.9,48.4,18.9,43,23.3,39.7L23.3,39.7z M51.1,100.3c-0.6-1.7-1-3.5-1.4-5.4c0.6-0.2,1.3-0.5,1.9-0.7c1,4.6,2.4,8.7,4.4,12.2
				c0.7,1.2,1.5,2.3,2.3,3.4c-0.1,0-0.1,0-0.2,0c-0.2,0-0.3-0.1-0.5-0.1C54.8,107.4,52.6,104.4,51.1,100.3z M105.8,67.7
				c-0.9-0.9-1.8-1.7-2.8-2.5c1.6-1.3,3-2.6,4.2-4c2-2.4,3.9-5.4,4.7-8.9C112.8,58.3,110.7,63.5,105.8,67.7L105.8,67.7z M111.9,36.4
				c0,0.1,0,0.2-0.1,0.3c0,0.1-0.1,0.3-0.1,0.4c-1.2-4.4-4-9-9.6-13.7c-13.5-11.3-24.2-7.1-30.8-1.6c-2.8,2.3-5.3,5.3-7.6,8.7
				c-1-0.9-2-1.7-3.1-2.5c-0.5-0.4-1.1-0.7-1.7-1.1c1.8-3.6,3.8-6.7,6.1-9.3c8.7-9.8,20-10.9,32.8-3.2
				C107.6,20.3,112.3,27.8,111.9,36.4L111.9,36.4z M20.8,40.3c0.1,0,0.3-0.1,0.5-0.1c-3.4,3.1-6.2,8-7.5,15.4
				c-3.1,17.2,5.8,24.2,13.8,27.1c3.5,1.3,7.6,2,11.9,2.2c-0.3,1.4-0.6,2.8-0.7,4.3c0,0.5-0.1,0.9-0.1,1.4
				c-4.2,0.3-8.2,0.2-11.9-0.5C14,87.4,7.5,78.3,7.9,63.5C8.2,52,12.6,44.1,20.8,40.3L20.8,40.3z M67.6,116.4c0,0-0.1-0.1-0.1-0.1
				c2,0.7,4.3,1.1,6.8,1.1c3.3,0,7-0.7,11.3-2.2c16.7-6,18.4-17.2,16.9-25.5c-0.6-3.4-1.9-7-3.7-10.6c1.6-0.5,3.2-1,4.6-1.7
				c0.2-0.1,0.5-0.2,0.7-0.4c2.1,3.2,3.8,6.3,4.9,9.5c4.1,12.2-0.6,22.4-13.8,29.6C84.5,121.8,75.1,121.9,67.6,116.4L67.6,116.4z
				 M109.7,71.7c-1-1.1-2.1-2.2-3.2-3.3c3.5-3,6.6-7.4,6.6-13.5C114.5,61.8,113.3,67.5,109.7,71.7L109.7,71.7z M117.3,82.7
				c-1.7-3.4-4-6.9-7-10.3c3.6-4.1,5.7-10.3,3.2-19.8c-0.3-1.1-0.7-2.2-1.1-3.3c0.1-1.4,0-2.8-0.3-4.1c0.3-1.5,0.4-3.1,0.2-4.8
				c0.3-1.2,0.5-2.5,0.5-3.9c2.5-10.1,1.3-23.8-18.3-32.5c-19.8-8.9-31.1-0.4-37,8.3c-2.3,3.4-4.3,7.5-5.9,12.1
				c-5.1-0.6-11.1,1-17.6,7.4c-0.6,0.6-1.1,1.1-1.6,1.7c-0.1,0.1-0.2,0.2-0.3,0.3c-1.4,0.6-2.7,1.4-3.9,2.4c-1.5,0.5-2.9,1.2-4.3,2
				c-1.2,0.3-2.3,0.8-3.5,1.3c-0.1,0-0.3,0.1-0.5,0.1C9.8,42.3-1.8,50.2,0.2,71.4C2.3,92.8,15.2,98.2,25.6,99
				c4.4,0.3,9.2-0.1,14.1-1.2c1.8,5,6.3,9.7,15.7,12.2c0.7,0.2,1.4,0.3,2,0.5c1,0.7,2.2,1.4,3.5,1.9c1.1,0.9,2.3,1.8,3.6,2.5
				c0.8,0.7,1.6,1.4,2.4,2.1c0.3,0.3,0.5,0.6,0.8,0.8c4.3,4.2,10.4,8,18.2,8c5.7,0,12.3-2,19.7-7.3C123.4,105.8,121.8,92,117.3,82.7
				L117.3,82.7z"/>
		</g>
		<g>
			<path class="st0" d="M355.5,86.2V67.1c0-0.2,0.1-0.4,0.4-0.4h0.5c0.2,0,0.4,0.2,0.4,0.4v8.1c0,0.1,0.1,0.1,0.1,0.1
				c0.2,0,0.8-1,2.2-1c1.9,0,3.1,1.2,3.1,3.5v5.4c0,2.3-1.2,3.5-3.1,3.5c-1.6,0-2-1.1-2.2-1.1c0,0-0.1,0-0.1,0.1v0.4
				c0,0.2-0.1,0.4-0.4,0.4h-0.4C355.7,86.6,355.5,86.5,355.5,86.2C355.5,86.2,355.5,86.2,355.5,86.2L355.5,86.2z M350.9,78.3
				c0-1.1-0.4-2.7-2.1-2.7c-1.2,0-2,0.9-2,2.7v4.4c0,1.9,0.7,2.7,2,2.7c1.8,0,2.1-1.7,2.1-2.7V78.3z M345.4,77.8
				c0-2.3,1.2-3.5,3.1-3.5c1.6,0,2,1.1,2.3,1.1c0,0,0.1,0,0.1-0.1v-0.4c0-0.2,0.1-0.4,0.4-0.4h0.4c0.2,0,0.4,0.2,0.4,0.4v11.4
				c0,0.2-0.1,0.4-0.4,0.4h-0.4c-0.2,0-0.4-0.1-0.4-0.4c0,0,0,0,0,0v-0.4c0-0.1-0.1-0.1-0.1-0.1c-0.2,0-0.7,1.1-2.3,1.1
				c-1.9,0-3.1-1.2-3.1-3.5L345.4,77.8z M337.6,67.1c0-0.2,0.1-0.4,0.4-0.4h0.6c0.2,0,0.4,0.2,0.4,0.4v17.8c0,0.2,0.2,0.4,0.4,0.4
				c0,0,0,0,0,0h3.7c0.2,0,0.4,0.2,0.4,0.4v0.5c0,0.2-0.2,0.4-0.4,0.4c0,0,0,0,0,0H338c-0.2,0-0.4-0.2-0.4-0.4L337.6,67.1
				L337.6,67.1z M432.5,44.1c0-0.2,0.2-0.4,0.4-0.4c0,0,0,0,0,0h0.9c0.2,0,0.4-0.1,0.4-0.4c0,0,0,0,0,0V41c0-0.2,0.1-0.4,0.4-0.4
				h0.5c0.2,0,0.4,0.2,0.4,0.4v2.3c0,0.2,0.2,0.4,0.4,0.4c0,0,0,0,0,0h1.6c0.2,0,0.4,0.1,0.4,0.4v0.4c0,0.2-0.2,0.4-0.4,0.4
				c0,0,0,0,0,0H436c-0.2,0-0.4,0.1-0.4,0.4c0,0,0,0,0,0v6.5c0,2,0.8,2.8,2,2.8c0.2,0,0.4,0.1,0.4,0.4v0.5c0,0.3-0.2,0.4-0.4,0.4
				c-2.1,0-3.4-1.4-3.4-3.6v-6.9c0-0.2-0.2-0.4-0.4-0.4c0,0,0,0,0,0h-0.9c-0.2,0-0.4-0.1-0.4-0.4V44.1z M423.7,55.5V44.1
				c0-0.2,0.1-0.4,0.4-0.4h0.4c0.2,0,0.4,0.2,0.4,0.4v0.4c0,0.1,0,0.1,0.1,0.1c0.2,0,0.7-1.1,2.3-1.1c1.9,0,3.1,1.2,3.1,3.5v8.4
				c0,0.2-0.1,0.4-0.4,0.4h-0.5c-0.2,0-0.4-0.1-0.4-0.4c0,0,0,0,0,0v-7.9c0-1.9-0.7-2.7-2-2.7c-1.8,0-2.1,1.7-2.1,2.7v7.9
				c0,0.2-0.1,0.4-0.4,0.4h-0.5C423.9,55.9,423.7,55.7,423.7,55.5C423.7,55.5,423.7,55.5,423.7,55.5L423.7,55.5z M419.1,48.8
				c0.2,0,0.4-0.1,0.4-0.4c0,0,0,0,0,0v-0.9c0-1.9-0.8-2.7-2-2.7c-1.3,0-2,0.8-2,2.7v0.9c0,0.2,0.2,0.4,0.4,0.4H419.1z M414.1,52.4
				v-5.3c0-2.3,1.2-3.5,3.4-3.5s3.4,1.2,3.4,3.5v2.5c0,0.2-0.2,0.4-0.4,0.4c0,0,0,0,0,0h-4.6c-0.2,0-0.4,0.2-0.4,0.4v1.5
				c0,2,0.8,2.8,2,2.8s2-1,2-2.8c0-0.2,0.1-0.4,0.4-0.4h0.5c0.2,0,0.4,0.2,0.4,0.4v0.5c0,2.2-1.3,3.6-3.4,3.6S414.1,54.7,414.1,52.4
				L414.1,52.4z M399.1,55.5V44.1c0-0.2,0.1-0.4,0.4-0.4h0.4c0.2,0,0.4,0.2,0.4,0.4v0.4c0,0.1,0,0.1,0.1,0.1c0.2,0,0.7-1.1,2.3-1.1
				c1.4,0,2.1,0.8,2.3,1c0.1,0.1,0.2,0.2,0.3,0.2c0.1,0,0.2-0.1,0.3-0.2c0.2-0.2,1-1,2.5-1c2,0,3.1,1.2,3.1,3.5v8.4
				c0,0.2-0.1,0.4-0.4,0.4h-0.5c-0.2,0-0.4-0.1-0.4-0.4c0,0,0,0,0,0v-7.9c0-1.9-0.7-2.7-2-2.7c-1.8,0-2.1,1.7-2.1,2.7v7.9
				c0,0.2-0.1,0.4-0.4,0.4h-0.5c-0.2,0-0.4-0.1-0.4-0.4c0,0,0,0,0,0v-7.9c0-1.9-0.7-2.7-2-2.7c-1.8,0-2.1,1.7-2.1,2.7v7.9
				c0,0.2-0.1,0.4-0.4,0.4h-0.5C399.3,55.9,399.1,55.7,399.1,55.5C399.1,55.5,399.1,55.5,399.1,55.5L399.1,55.5z M394.9,47.6
				c0-1.9-0.7-2.7-2-2.7c-1.8,0-2.1,1.7-2.1,2.7V52c0,1.1,0.3,2.7,2.1,2.7c1.3,0,2-0.9,2-2.7V47.6z M389.5,62.1V44.1
				c0-0.2,0.2-0.4,0.4-0.4h0.4c0.3,0,0.4,0.2,0.4,0.4v0.4c0,0.1,0,0.1,0.1,0.1c0.2,0,0.7-1.1,2.2-1.1c1.9,0,3.1,1.2,3.1,3.5v5.4
				c0,2.3-1.2,3.5-3.1,3.5c-1.6,0-2-1.1-2.2-1.1c-0.1,0-0.1,0-0.1,0.1v7.1c0,0.2-0.1,0.4-0.4,0.4h-0.5
				C389.6,62.5,389.5,62.4,389.5,62.1L389.5,62.1z M385.3,47.6c0-2-0.8-2.7-2-2.7c-1.3,0-2,0.8-2,2.7V52c0,2,0.8,2.7,2,2.7
				c1.3,0,2-0.8,2-2.7V47.6z M379.9,47.1c0-2.3,1.2-3.5,3.4-3.5c2.1,0,3.4,1.2,3.4,3.5v5.4c0,2.3-1.3,3.5-3.4,3.5
				c-2.1,0-3.4-1.2-3.4-3.5V47.1z M375.4,36.3c0-0.2,0.1-0.4,0.4-0.4h0.5c0.2,0,0.4,0.2,0.4,0.4v19.1c0,0.2-0.1,0.4-0.4,0.4h-0.5
				c-0.2,0-0.4-0.1-0.4-0.4c0,0,0,0,0,0L375.4,36.3z M370.5,48.8c0.2,0,0.4-0.1,0.4-0.4c0,0,0,0,0,0v-0.9c0-1.9-0.8-2.7-2-2.7
				c-1.3,0-2,0.8-2,2.7v0.9c0,0.2,0.2,0.4,0.4,0.4c0,0,0,0,0,0H370.5z M365.6,52.4v-5.3c0-2.3,1.2-3.5,3.4-3.5
				c2.1,0,3.4,1.2,3.4,3.5v2.5c0,0.2-0.2,0.4-0.4,0.4h-4.6c-0.2,0-0.4,0.2-0.4,0.4v1.5c0,2,0.8,2.8,2,2.8s2-1,2-2.8
				c0-0.2,0.1-0.4,0.4-0.4h0.5c0.2,0,0.4,0.2,0.4,0.4v0.5c0,2.2-1.3,3.6-3.4,3.6C366.8,56,365.6,54.7,365.6,52.4L365.6,52.4z
				 M359.6,55.5l-2.7-11.3c-0.1-0.5,0.2-0.5,0.5-0.5h0.3c0.4,0,0.5,0,0.6,0.4l1.9,8.4c0,0.2,0.2,0.2,0.3,0l1.9-8.4
				c0.1-0.4,0.2-0.4,0.6-0.4h0.4c0.3,0,0.6,0,0.5,0.5L361,55.5c-0.1,0.4-0.2,0.4-0.5,0.4h-0.3C359.8,55.9,359.8,55.9,359.6,55.5
				L359.6,55.5z M353.4,48.8c0.2,0,0.4-0.2,0.4-0.4v-0.9c0-1.9-0.8-2.7-2-2.7c-1.3,0-2,0.8-2,2.7v0.9c0,0.2,0.2,0.4,0.4,0.4
				c0,0,0,0,0,0H353.4z M348.4,52.4v-5.3c0-2.3,1.2-3.5,3.4-3.5c2.1,0,3.4,1.2,3.4,3.5v2.5c0,0.2-0.2,0.4-0.4,0.4c0,0,0,0,0,0h-4.6
				c-0.2,0-0.4,0.2-0.4,0.4v1.5c0,2,0.8,2.8,2,2.8c1.3,0,2-1,2-2.8c0-0.2,0.1-0.4,0.4-0.4h0.5c0.2,0,0.4,0.2,0.4,0.4v0.5
				c0,2.2-1.3,3.6-3.4,3.6C349.7,56,348.4,54.7,348.4,52.4L348.4,52.4z M341.6,54.5c1.5,0,2.5-1,2.5-3.1V40.3c0-2.1-1-3.1-2.5-3.1
				h-2.1c-0.2,0-0.4,0.2-0.4,0.4v16.4c0,0.2,0.2,0.4,0.4,0.4L341.6,54.5L341.6,54.5z M337.6,36.3c0-0.2,0.1-0.4,0.4-0.4h3.5
				c2.4,0,4,1.6,4,4v12c0,2.4-1.6,4-4,4H338c-0.2,0-0.4-0.2-0.4-0.4L337.6,36.3z M419.7,13.3c0-0.2,0.1-0.4,0.4-0.4h0.4
				c0.2,0,0.4,0.2,0.4,0.4v0.5c0,0.1,0,0.1,0.1,0.1c0.2,0,0.8-1.1,2.5-1.1c0.2,0,0.4,0.1,0.4,0.4v0.6c0,0.2-0.2,0.4-0.4,0.4
				c-1.6-0.2-2.5,0.8-2.5,2.7v7.8c0,0.2-0.1,0.4-0.4,0.4h-0.5c-0.2,0-0.4-0.1-0.4-0.4c0,0,0,0,0,0L419.7,13.3z M415.5,16.8
				c0-2-0.8-2.7-2-2.7s-2,0.8-2,2.7v4.4c0,2,0.8,2.7,2,2.7s2-0.8,2-2.7V16.8z M410.1,16.3c0-2.3,1.2-3.5,3.4-3.5
				c2.1,0,3.4,1.2,3.4,3.5v5.4c0,2.3-1.3,3.5-3.4,3.5c-2.1,0-3.4-1.2-3.4-3.5V16.3z M403,13.3c0-0.3,0.2-0.4,0.4-0.4h0.9
				c0.2,0,0.4-0.1,0.4-0.4V8.8c0-2.3,1.3-3.6,3.4-3.6c0.2,0,0.4,0.1,0.4,0.4v0.5c0,0.3-0.2,0.4-0.4,0.4c-1.3,0-2,0.9-2,2.8v3.2
				c0,0.3,0.2,0.4,0.4,0.4h1.6c0.2,0,0.4,0.2,0.4,0.4v0.4c0,0.3-0.2,0.4-0.4,0.4h-1.6c-0.2,0-0.4,0.2-0.4,0.4v10.2
				c0,0.2-0.2,0.4-0.4,0.4c0,0,0,0,0,0h-0.5c-0.3,0-0.4-0.2-0.4-0.4V14.6c0-0.2-0.2-0.4-0.4-0.4c0,0,0,0,0,0h-0.9
				c-0.2,0-0.4-0.1-0.4-0.4c0,0,0,0,0,0L403,13.3z M394.4,18c0.2,0,0.4-0.1,0.4-0.4c0,0,0,0,0,0v-0.9c0-1.9-0.8-2.7-2-2.7
				c-1.3,0-2,0.8-2,2.7v0.9c0,0.2,0.2,0.4,0.4,0.4c0,0,0,0,0,0H394.4z M389.4,21.6v-5.3c0-2.3,1.2-3.5,3.4-3.5
				c2.1,0,3.4,1.2,3.4,3.5v2.5c0,0.2-0.2,0.4-0.4,0.4c0,0,0,0,0,0h-4.6c-0.2,0-0.4,0.2-0.4,0.4v1.5c0,2,0.8,2.8,2,2.8s2-1,2-2.8
				c0-0.2,0.1-0.4,0.4-0.4h0.5c0.2,0,0.4,0.2,0.4,0.4v0.5c0,2.2-1.3,3.6-3.4,3.6C390.7,25.3,389.4,23.9,389.4,21.6L389.4,21.6z
				 M380.2,16.3c0-2.3,1.2-3.5,3.4-3.5c2.1,0,3.4,1.2,3.4,3.5v0.6c0,0.2-0.2,0.4-0.4,0.4c0,0,0,0,0,0H386c-0.3,0-0.4-0.2-0.4-0.4
				c0-2-0.8-2.8-2-2.8c-1.3,0-2,0.8-2,2.7v4.4c0,2,0.8,2.7,2,2.7c1.3,0,2-0.9,2-2.8c0-0.2,0.1-0.4,0.4-0.4h0.5
				c0.2,0,0.4,0.2,0.4,0.4v0.6c0,2.3-1.3,3.5-3.4,3.5s-3.4-1.2-3.4-3.5L380.2,16.3z M370.6,24.7V13.3c0-0.2,0.1-0.4,0.4-0.4h0.4
				c0.2,0,0.4,0.2,0.4,0.4v0.4c0,0.1,0,0.1,0.1,0.1c0.2,0,0.7-1.1,2.3-1.1c1.9,0,3.1,1.2,3.1,3.5v8.4c0,0.2-0.1,0.4-0.4,0.4h-0.5
				c-0.2,0-0.4-0.1-0.4-0.4c0,0,0,0,0,0v-7.9c0-1.9-0.7-2.7-2-2.7c-1.8,0-2.1,1.7-2.1,2.7v7.9c0,0.2-0.1,0.4-0.4,0.4H371
				C370.8,25.1,370.6,25,370.6,24.7C370.6,24.8,370.6,24.8,370.6,24.7L370.6,24.7z M366.2,16.8c0-1.1-0.4-2.7-2.1-2.7
				c-1.2,0-2,0.9-2,2.7v4.4c0,1.9,0.7,2.7,2,2.7c1.8,0,2.1-1.7,2.1-2.7V16.8z M360.8,16.3c0-2.3,1.2-3.5,3.1-3.5
				c1.6,0,2,1.1,2.3,1.1c0,0,0.1,0,0.1-0.1v-0.4c0-0.2,0.1-0.4,0.4-0.4h0.4c0.2,0,0.4,0.2,0.4,0.4v11.4c0,0.2-0.1,0.4-0.4,0.4h-0.4
				c-0.2,0-0.4-0.2-0.4-0.4v-0.4c0-0.1-0.1-0.1-0.1-0.1c-0.2,0-0.7,1.1-2.3,1.1c-1.9,0-3.1-1.2-3.1-3.5V16.3z M351.2,24.7V13.3
				c0-0.2,0.1-0.4,0.4-0.4h0.4c0.2,0,0.4,0.2,0.4,0.4v0.4c0,0.1,0,0.1,0.1,0.1c0.2,0,0.7-1.1,2.3-1.1c1.9,0,3.1,1.2,3.1,3.5v8.4
				c0,0.2-0.1,0.4-0.4,0.4H357c-0.2,0-0.4-0.1-0.4-0.4c0,0,0,0,0,0v-7.9c0-1.9-0.7-2.7-2-2.7c-1.8,0-2.1,1.7-2.1,2.7v7.9
				c0,0.2-0.1,0.4-0.4,0.4h-0.5C351.4,25.1,351.2,25,351.2,24.7C351.2,24.8,351.2,24.7,351.2,24.7L351.2,24.7z M346.5,13.3
				c0-0.2,0.1-0.4,0.4-0.4h0.5c0.2,0,0.4,0.2,0.4,0.4v11.4c0,0.2-0.1,0.4-0.4,0.4h-0.5c-0.2,0-0.4-0.1-0.4-0.4c0,0,0,0,0,0V13.3z
				 M347.2,8.9c0.6,0,1,0.5,1,1c0,0.6-0.5,1-1,1c-0.6,0-1-0.4-1-1C346.2,9.3,346.6,8.9,347.2,8.9z M337.6,24.7V5.6
				c0-0.2,0.1-0.4,0.4-0.4h5.1c0.2,0,0.4,0.2,0.4,0.4v0.5c0,0.2-0.2,0.4-0.4,0.4c0,0,0,0,0,0h-3.7c-0.2,0-0.4,0.2-0.4,0.4v7.6
				c0,0.2,0.2,0.4,0.4,0.4h3.7c0.2,0,0.4,0.2,0.4,0.4v0.5c0,0.2-0.2,0.4-0.4,0.4h-3.7c-0.2,0-0.4,0.2-0.4,0.4v8.1
				c0,0.2-0.1,0.4-0.4,0.4H338C337.8,25.1,337.6,25,337.6,24.7L337.6,24.7z M360.9,82.7v-4.4c0-1.9-0.7-2.7-2-2.7
				c-1.8,0-2.1,1.7-2.1,2.7v4.4c0,1.1,0.3,2.7,2.1,2.7C360.2,85.5,360.9,84.6,360.9,82.7"/>
		</g>
		<g>
			<g>
				<path class="st0" d="M189.2,2.8h-51l0,0c-2,0-3.6,1.6-3.6,3.6v112.1c0,2,1.6,3.6,3.6,3.6h15.7c2,0,3.6-1.6,3.6-3.6V80.2
					c0-4.1,3.4-7.5,7.6-7.5h16.7c2,0,3.6-1.6,3.6-3.6V53.6c0-2-1.6-3.6-3.6-3.6H165c-4.2,0-7.6-3.4-7.6-7.5v-9.6
					c0-4.1,3.4-7.5,7.6-7.5h24.2c2,0,3.6-1.6,3.6-3.6V6.4C192.8,4.4,191.2,2.8,189.2,2.8z"/>
				<path class="st0" d="M352.5,99.5h-24.8c-4.2,0-7.6-3.4-7.6-7.5V6.4c0-2-1.6-3.6-3.6-3.6h-15.6c-2,0-3.6,1.6-3.6,3.6v112.1
					c0,2,1.6,3.6,3.6,3.6h51.6c2,0,3.6-1.6,3.6-3.6V103C356.1,101.1,354.5,99.5,352.5,99.5z"/>
				<path class="st0" d="M238.7,3.1h-28.9c-2.3,0-4.3,1.9-4.3,4.2l0,110.7c0,2.3,1.9,4.2,4.3,4.2h28.9c21,0,38-16.9,38-37.7V40.8
					C276.7,20,259.7,3.1,238.7,3.1z M254.3,83.8c0,9-7.4,16.4-16.5,16.4h-3.6c-3.2,0-5.8-2.6-5.8-5.8V31.8c0-3.2,2.6-5.8,5.8-5.8v0
					h3.6c9.1,0,16.5,7.3,16.5,16.4V83.8z"/>
			</g>
		</g>
	</g>
</g>
</svg>
