<?xml version="1.0" encoding="UTF-8"?>
<svg id="Calque_2" data-name="Calque 2" xmlns="http://www.w3.org/2000/svg" xmlns:xlink="http://www.w3.org/1999/xlink" viewBox="0 0 86 65">
  <defs>
    <style>
      .cls-1 {
        clip-path: url(#clippath);
      }

      .cls-2 {
        fill: none;
      }

      .cls-3 {
        fill: #362e50;
      }
    </style>
    <clipPath id="clippath">
      <rect class="cls-2" width="86" height="65"/>
    </clipPath>
  </defs>
  <g id="Calque_1-2" data-name="Calque 1">
    <g class="cls-1">
      <path class="cls-3" d="m8.85,18.13c-.99-.94-1.48-2.19-1.48-3.75V5.16c0-1.56.49-2.81,1.48-3.75C9.83.47,11.14,0,12.78,0s2.94.47,3.94,1.42c1,.95,1.5,2.2,1.5,3.76v1.04c0,.09-.03.17-.1.23-.06.06-.14.1-.23.1h-3.18c-.09,0-.17-.03-.23-.1-.06-.06-.09-.14-.09-.23v-1.09c0-.55-.15-.99-.44-1.32-.29-.34-.68-.51-1.17-.51s-.85.17-1.14.51c-.29.34-.43.78-.43,1.32v9.27c0,.55.14.99.43,1.32.29.34.67.5,1.14.5s.88-.17,1.17-.5c.29-.34.44-.78.44-1.32v-2.18c0-.09-.05-.14-.14-.14h-1.2c-.09,0-.17-.03-.23-.09-.06-.06-.1-.14-.1-.23v-2.43c0-.09.03-.17.1-.23.06-.06.14-.1.23-.1h4.84c.09,0,.17.03.23.1.06.06.1.14.1.23v5.05c0,1.56-.5,2.82-1.5,3.75-1,.94-2.31,1.41-3.94,1.41s-2.94-.47-3.93-1.41"/>
      <path class="cls-3" d="m19.88,19.22c-.06-.06-.1-.14-.1-.23V.55c0-.09.03-.17.1-.23.06-.06.14-.1.23-.1h3.18c.09,0,.17.03.23.1.06.06.1.14.1.23v15.33c0,.09.05.14.14.14h5.71c.09,0,.17.03.23.1.06.06.1.14.1.23v2.65c0,.09-.03.17-.1.23-.06.06-.14.1-.23.1h-9.35c-.09,0-.17-.03-.23-.1"/>
      <path class="cls-3" d="m37.56,15.7c.31-.35.46-.82.46-1.41V5.24c0-.58-.15-1.05-.46-1.4-.31-.35-.72-.53-1.22-.53s-.91.18-1.21.53c-.3.35-.45.82-.45,1.4v9.06c0,.58.15,1.05.45,1.41s.7.53,1.21.53.91-.18,1.22-.53m-5.22,2.36c-1-.98-1.5-2.29-1.5-3.93V5.4c0-1.64.5-2.95,1.5-3.93C33.34.49,34.67,0,36.34,0s3,.49,4.01,1.47c1.01.98,1.51,2.29,1.51,3.93v8.73c0,1.64-.5,2.95-1.51,3.93-1.01.98-2.34,1.47-4.01,1.47s-3-.49-4-1.47"/>
      <path class="cls-3" d="m50.04,15.33c.34-.44.52-1.06.52-1.85s-.17-1.44-.52-1.91c-.34-.47-.81-.71-1.39-.71h-1.22c-.09,0-.14.05-.14.14v4.86c0,.09.05.14.14.14h1.2c.6,0,1.07-.22,1.41-.66m-2.74-11.68v4.28c0,.09.05.14.14.14h.98c.62,0,1.1-.19,1.44-.59.34-.39.52-.94.52-1.65,0-.74-.17-1.32-.5-1.72-.34-.4-.82-.6-1.45-.6h-.98c-.09,0-.14.05-.14.14m5.57,14.29c-1.02.91-2.33,1.36-3.94,1.36h-5.14c-.09,0-.17-.03-.23-.1s-.1-.14-.1-.23V.55c0-.09.03-.17.1-.23.06-.06.14-.1.23-.1h4.54c1.81,0,3.23.44,4.25,1.31,1.02.87,1.54,2.17,1.54,3.9s-.62,3.11-1.85,3.93c-.07.05-.08.11-.03.16,1.43,1.02,2.15,2.53,2.15,4.53,0,1.69-.51,2.99-1.52,3.9"/>
      <path class="cls-3" d="m59.91,13.29h2.45c.09,0,.13-.04.11-.14l-1.28-7.45c-.02-.05-.05-.08-.08-.08s-.06.03-.08.08l-1.22,7.45c0,.09.04.14.11.14m3.56,5.73l-.44-2.62c0-.09-.05-.14-.16-.14h-3.45c-.11,0-.16.04-.16.14l-.44,2.62c-.02.2-.14.3-.35.3h-3.18c-.23,0-.33-.12-.27-.35L59.01.52c.04-.2.15-.3.35-.3h3.67c.2,0,.32.1.35.3l3.97,18.44.03.11c0,.16-.1.25-.3.25h-3.26c-.22,0-.33-.1-.35-.3"/>
      <path class="cls-3" d="m68.75,19.22c-.06-.06-.1-.14-.1-.23V.55c0-.09.03-.17.1-.23.06-.06.14-.1.23-.1h3.18c.09,0,.17.03.23.1.06.06.1.14.1.23v15.33c0,.09.05.14.14.14h5.71c.09,0,.17.03.23.1.06.06.1.14.1.23v2.65c0,.09-.03.17-.1.23-.06.06-.14.1-.23.1h-9.35c-.09,0-.17-.03-.23-.1"/>
      <path class="cls-3" d="m2.81,40.86c-.98-.94-1.47-2.18-1.47-3.72v-1.88c0-.09.03-.17.1-.23.06-.06.14-.1.23-.1h3.18c.09,0,.17.03.23.1.06.06.09.14.09.23v1.94c0,.53.14.95.41,1.28.27.33.64.49,1.09.49s.85-.16,1.13-.49c.28-.33.42-.75.42-1.28v-13.91c0-.09.03-.17.1-.23.06-.06.14-.1.23-.1h3.18c.09,0,.17.03.23.1.06.06.1.14.1.23v13.86c0,1.55-.49,2.79-1.48,3.72-.99.94-2.29,1.41-3.9,1.41s-2.88-.47-3.86-1.41"/>
      <path class="cls-3" d="m15.28,40.72c-.99-1.03-1.48-2.4-1.48-4.11v-13.34c0-.09.03-.17.09-.23.06-.06.14-.1.23-.1h3.18c.09,0,.17.03.23.1.06.06.09.14.09.23v13.72c0,.58.15,1.06.43,1.42.29.36.67.55,1.14.55s.85-.18,1.13-.55c.28-.36.42-.84.42-1.42v-13.72c0-.09.03-.17.09-.23.06-.06.14-.1.23-.1h3.18c.09,0,.17.03.23.1s.09.14.09.23v13.34c0,1.71-.49,3.08-1.48,4.11-.99,1.03-2.29,1.54-3.9,1.54s-2.94-.51-3.93-1.54"/>
      <path class="cls-3" d="m28.61,41.64c-.8-.42-1.41-1-1.85-1.76-.43-.75-.65-1.62-.65-2.61v-.79c0-.09.03-.17.1-.23.06-.06.14-.1.23-.1h3.13c.09,0,.17.03.23.1.06.06.09.14.09.23v.6c0,.56.15,1.02.44,1.36.29.35.65.52,1.09.52s.8-.16,1.09-.49c.29-.33.43-.75.43-1.28s-.18-1.01-.54-1.41c-.36-.39-1.07-.97-2.12-1.73-.91-.66-1.64-1.24-2.2-1.75s-1.04-1.14-1.44-1.88c-.4-.75-.6-1.61-.6-2.59,0-1.55.48-2.78,1.44-3.71.96-.93,2.23-1.39,3.81-1.39s2.88.48,3.85,1.45c.97.96,1.45,2.23,1.45,3.79v.65c0,.09-.03.17-.1.23s-.14.1-.23.1h-3.13c-.09,0-.17-.03-.23-.1-.06-.06-.1-.14-.1-.23v-.74c0-.56-.14-1.01-.42-1.35-.28-.34-.65-.5-1.1-.5s-.79.16-1.06.48c-.27.32-.41.76-.41,1.32s.17,1.03.52,1.45c.34.42,1.02,1,2.04,1.75,1.12.84,1.97,1.51,2.54,2.03.57.52,1.01,1.09,1.33,1.72.32.63.48,1.38.48,2.25,0,1.6-.49,2.87-1.47,3.82-.98.95-2.26,1.42-3.86,1.42-1.05,0-1.98-.21-2.77-.63"/>
      <path class="cls-3" d="m49.03,23.05c.06.06.09.14.09.23v2.65c0,.09-.03.17-.09.23-.06.06-.14.1-.23.1h-3.4c-.09,0-.13.05-.13.14v15.33c0,.09-.03.17-.1.23-.06.06-.14.1-.23.1h-3.18c-.09,0-.17-.03-.23-.1-.06-.06-.09-.14-.09-.23v-15.33c0-.09-.05-.14-.14-.14h-3.26c-.09,0-.17-.03-.23-.1-.06-.06-.1-.14-.1-.23v-2.65c0-.09.03-.17.1-.23.06-.06.14-.09.23-.09h10.76c.09,0,.17.03.23.09"/>
      <path class="cls-3" d="m50.66,41.95c-.06-.06-.1-.14-.1-.23v-18.44c0-.09.03-.17.1-.23.06-.06.14-.1.23-.1h3.18c.09,0,.17.03.23.1.06.06.1.14.1.23v18.44c0,.09-.03.17-.1.23-.06.06-.14.1-.23.1h-3.18c-.09,0-.17-.03-.23-.1"/>
      <path class="cls-3" d="m57.51,40.81c-.99-.97-1.48-2.28-1.48-3.91v-8.84c0-1.62.49-2.91,1.48-3.87.99-.96,2.3-1.45,3.93-1.45s2.97.48,3.96,1.45c.99.96,1.48,2.26,1.48,3.87v.3c0,.09-.03.17-.1.23-.06.06-.14.1-.23.1l-3.18.14c-.22,0-.33-.1-.33-.3v-.71c0-.53-.15-.96-.44-1.28-.29-.33-.68-.49-1.17-.49s-.85.16-1.14.49c-.29.33-.44.76-.44,1.28v9.41c0,.53.15.95.44,1.27.29.32.67.48,1.14.48s.88-.16,1.17-.48c.29-.32.44-.74.44-1.27v-.74c0-.09.03-.17.1-.23.06-.06.14-.09.23-.09l3.18.14c.09,0,.17.03.23.09.06.06.1.14.1.23v.27c0,1.64-.5,2.94-1.49,3.91-1,.97-2.31,1.46-3.94,1.46s-2.94-.49-3.93-1.46"/>
      <path class="cls-3" d="m78.25,26.16c-.06.06-.14.1-.23.1h-5.68c-.09,0-.14.05-.14.14v4.31c0,.09.04.14.14.14h3.26c.09,0,.17.03.23.1.06.06.1.14.1.23v2.65c0,.09-.03.17-.1.23-.06.06-.14.1-.23.1h-3.26c-.09,0-.14.04-.14.14v4.34c0,.09.04.14.14.14h5.68c.09,0,.17.03.23.1.06.06.09.14.09.23v2.65c0,.09-.03.17-.09.23-.06.06-.14.1-.23.1h-9.32c-.09,0-.17-.03-.23-.1-.06-.06-.1-.14-.1-.23v-18.44c0-.09.03-.17.1-.23.06-.06.14-.1.23-.1h9.32c.09,0,.17.03.23.1.06.06.09.14.09.23v2.65c0,.09-.03.17-.09.23"/>
      <path class="cls-3" d="m6.56,53.39c.35-.45.53-1.06.53-1.84s-.18-1.43-.53-1.88c-.35-.45-.82-.68-1.4-.68h-1.2c-.09,0-.14.05-.14.14v4.8c0,.09.04.14.14.14h1.2c.58,0,1.05-.22,1.4-.67m1.92-7c.78.49,1.38,1.18,1.81,2.06.43.88.64,1.89.64,3.01,0,1.69-.45,3.05-1.36,4.06-.91,1.02-2.09,1.53-3.56,1.53h-2.04c-.09,0-.14.05-.14.14v7.26c0,.09-.03.17-.1.23-.06.06-.14.1-.23.1H.33c-.09,0-.17-.03-.23-.1-.06-.06-.09-.14-.09-.23v-18.47c0-.09.03-.17.09-.23.06-.06.14-.1.23-.1h5.49c1,0,1.88.25,2.66.74"/>
      <path class="cls-3" d="m16.5,49.12v4.66c0,.09.05.14.14.14h1.22c.56,0,1.02-.22,1.37-.67.35-.45.53-1.04.53-1.79s-.18-1.37-.53-1.81c-.35-.44-.81-.67-1.37-.67h-1.22c-.09,0-.14.05-.14.14m3.29,15.39l-2.09-7.53c-.04-.07-.08-.11-.14-.11h-.92c-.09,0-.14.05-.14.14v7.45c0,.09-.03.17-.09.23-.06.06-.14.1-.23.1h-3.18c-.09,0-.17-.03-.23-.1-.06-.06-.1-.14-.1-.23v-18.44c0-.09.03-.17.1-.23.06-.06.14-.09.23-.09h5.49c1,0,1.89.24,2.66.72.78.48,1.38,1.16,1.81,2.03.42.87.64,1.87.64,3s-.2,2.02-.61,2.84c-.41.82-.97,1.45-1.7,1.91-.04.02-.06.04-.08.07-.02.03-.02.06,0,.1l2.5,8.05.03.11c0,.18-.1.27-.3.27h-3.26c-.2,0-.33-.09-.38-.27"/>
      <path class="cls-3" d="m31.91,61.17c.31-.35.46-.82.46-1.41v-9.06c0-.58-.15-1.05-.46-1.41-.31-.35-.72-.53-1.22-.53s-.91.18-1.21.53c-.3.36-.45.82-.45,1.41v9.06c0,.58.15,1.05.45,1.41.3.35.7.53,1.21.53s.91-.18,1.22-.53m-5.22,2.36c-1-.98-1.5-2.29-1.5-3.93v-8.73c0-1.64.5-2.95,1.5-3.93,1-.98,2.33-1.47,4-1.47s3,.49,4.01,1.47c1.01.98,1.51,2.29,1.51,3.93v8.73c0,1.64-.5,2.95-1.51,3.93-1.01.98-2.34,1.47-4.01,1.47s-3-.49-4-1.47"/>
      <path class="cls-3" d="m38.98,63.6c-.98-.94-1.47-2.18-1.47-3.72v-1.88c0-.09.03-.17.1-.23.06-.06.14-.1.23-.1h3.18c.09,0,.17.03.23.1.06.06.1.14.1.23v1.94c0,.53.14.95.41,1.28.27.33.63.49,1.09.49s.85-.16,1.13-.49c.28-.33.42-.75.42-1.28v-13.91c0-.09.03-.17.1-.23.06-.06.14-.1.23-.1h3.18c.09,0,.17.03.23.1.06.06.1.14.1.23v13.86c0,1.55-.49,2.79-1.48,3.72-.99.94-2.29,1.4-3.9,1.4s-2.88-.47-3.86-1.4"/>
      <path class="cls-3" d="m60.49,48.89c-.06.06-.14.1-.23.1h-5.68c-.09,0-.14.05-.14.14v4.31c0,.09.04.14.14.14h3.26c.09,0,.17.03.23.1.06.06.1.14.1.23v2.65c0,.09-.03.17-.1.23-.06.06-.14.1-.23.1h-3.26c-.09,0-.14.04-.14.14v4.34c0,.09.04.14.14.14h5.68c.09,0,.17.03.23.1.06.06.09.14.09.23v2.65c0,.09-.03.17-.09.23-.06.06-.14.1-.23.1h-9.32c-.09,0-.17-.03-.23-.1-.06-.06-.1-.14-.1-.23v-18.44c0-.09.03-.17.1-.23.06-.06.14-.1.23-.1h9.32c.09,0,.17.03.23.1.06.06.09.14.09.23v2.65c0,.09-.03.17-.09.23"/>
      <path class="cls-3" d="m63.73,63.54c-.99-.97-1.48-2.28-1.48-3.91v-8.84c0-1.62.49-2.91,1.48-3.87.99-.96,2.3-1.45,3.93-1.45s2.97.48,3.96,1.45c.99.96,1.48,2.26,1.48,3.87v.3c0,.09-.03.17-.1.23-.06.06-.14.1-.23.1l-3.18.14c-.22,0-.33-.1-.33-.3v-.71c0-.53-.14-.96-.43-1.28-.29-.33-.68-.49-1.17-.49s-.85.16-1.14.49c-.29.33-.44.76-.44,1.28v9.41c0,.53.15.95.44,1.27.29.32.67.48,1.14.48s.88-.16,1.17-.48.43-.74.43-1.27v-.74c0-.09.03-.17.1-.23.06-.06.14-.09.23-.09l3.18.14c.09,0,.17.03.23.09.06.06.1.14.1.23v.27c0,1.64-.5,2.94-1.49,3.91-1,.97-2.31,1.46-3.94,1.46s-2.94-.49-3.93-1.46"/>
      <path class="cls-3" d="m85.9,45.78c.06.06.09.14.09.23v2.65c0,.09-.03.17-.09.23-.06.06-.14.09-.23.09h-3.4c-.09,0-.13.05-.13.14v15.33c0,.09-.03.17-.1.23-.06.06-.14.1-.23.1h-3.18c-.09,0-.17-.03-.23-.1-.06-.06-.09-.14-.09-.23v-15.33c0-.09-.05-.14-.14-.14h-3.26c-.09,0-.17-.03-.23-.09-.06-.06-.1-.14-.1-.23v-2.65c0-.09.03-.17.1-.23.06-.06.14-.09.23-.09h10.76c.09,0,.17.03.23.09"/>
    </g>
  </g>
</svg>