<svg xmlns="http://www.w3.org/2000/svg" viewBox="0 0 80 36" fill="#ffffff"><path d="M8.47 2.053H0V33.95h8.47V2.053Zm63.06 0v3.102c-2.285-2.367-5.734-3.594-9.164-3.594-9.102 0-16.479 7.343-16.479 16.4 0 9.057 7.379 16.4 16.479 16.4 3.43 0 6.734-1.208 9.163-3.693v3.282H80V2.053h-8.47ZM62.787 27.08c-5.343 0-9.318-3.959-9.318-9.139s3.958-9.164 9.301-9.164c5.344 0 9.3 4.001 9.3 9.182 0 5.18-3.94 9.12-9.283 9.12Zm-27.594-3.785c-1.649 2.48-4.407 4.108-7.534 4.108-4.158 0-7.725-2.646-8.835-6.58h24.735c.145-.867.212-1.985.212-2.892 0-9.053-6.873-16.39-16.112-16.39-5.564 0-10.492 2.663-13.532 6.758l5.998 4.27c1.648-2.482 4.407-4.11 7.534-4.11 3.561 0 6.676 1.797 8.185 4.876H11.43c-.376 1.364-.499 3.114-.499 4.596 0 9.052 7.49 16.39 16.729 16.39 5.563 0 10.49-2.662 13.53-6.757l-5.996-4.27Z" fill="#ffffff"/></svg>