<svg version="1.1" xmlns="http://www.w3.org/2000/svg" xmlns:xlink="http://www.w3.org/1999/xlink" x="0px" y="0px" width="132" height="88"
     viewBox="0 0 33 22" preserveAspectRatio="xMinYMin" style="enable-background:new 0 0 33 22;" xml:space="preserve">
	<g>
		<path d="M1.6,6.8h2.5c0.4,0,0.7,0.3,0.7,0.7l0,0l0.3,13.3c0,0.4-0.3,0.7-0.7,0.7l0,0H1.9c-0.4,0-0.7-0.3-0.7-0.7l0,0
			L0.9,7.5C0.9,7.1,1.2,6.8,1.6,6.8L1.6,6.8z" fill="#0069B4"/>
		<path d="M32.8,0.3c-0.1-0.2-0.3-0.2-0.6-0.2l-2.5,0.1c-0.6,0-1,0.4-1.2,0.9L25,11.3c-0.1,0.2-0.2,0.4-0.3,0.4
			c-0.2,0-0.3-0.1-0.4-0.3L19.4,0.8c-0.1-0.2-0.3-0.3-0.5-0.3s-0.4,0.1-0.5,0.3L14,11.5c-0.1,0.2-0.2,0.3-0.3,0.3s-0.2-0.1-0.3-0.3
			l-3.9-10C9.3,1,8.9,0.6,8.3,0.6L0.7,0.7C0.3,0.7,0,1.1,0,1.5v2.1C0,4,0.4,4.3,0.8,4.3l4.9-0.1c0.3,0,0.6,0.2,0.7,0.4l6.5,16.9
			c0.1,0.2,0.3,0.4,0.5,0.3c0.2,0,0.4-0.1,0.5-0.3L18.7,10c0.1-0.2,0.2-0.4,0.4-0.4s0.3,0.1,0.4,0.3l5.3,11.3
			c0.1,0.2,0.3,0.3,0.5,0.3s0.4-0.2,0.5-0.4l7-20.4C33,0.7,33,0.5,32.8,0.3z" fill="#0069B4"/>
	</g>
</svg>
