<svg xmlns="http://www.w3.org/2000/svg" width="1818.02" height="634.53" data-name="Ebene 1" viewBox="0 0 1818.02 634.53">
    <path d="M662.52 142.96 790.15 0h62.57L741.25 122.24l121.83 178.18h-62.16l-94.48-140.06-43.92 48.07v91.99h-52.63V0h52.63v142.96ZM928.19 300.42h-52.63V0h52.63v300.42ZM967.11 0h212.58v43.92h-159.95v80.39h151.25v43.51h-151.25v88.26h159.95v44.34H967.11V0ZM1262.3 256.09h151.25v44.34h-203.87V0h52.63v256.09ZM661.98 629.14h-52.63V328.72h52.63v300.42ZM742.24 437.29c12.85-23.2 36.46-36.05 67.54-36.05 53.87 0 75.83 34.81 75.83 87.85v140.06H836.3V501.11c0-30.25-4.56-59.67-42.27-59.67s-51.8 29.01-51.8 69.2v118.51h-49.31V406.22h49.31v31.08ZM1048.4 468.78c-4.97-21.13-24.45-29.83-52.21-29.83-22.38 0-41.44 9.12-41.44 24.03s10.77 22.79 32.32 27.35l30.25 6.22c44.75 9.95 79.97 23.21 79.97 66.3 0 46.41-43.51 71.69-95.31 71.69-57.6 0-94.48-32.32-99.04-75h48.07c4.14 23.62 21.13 37.71 52.63 37.71 27.35 0 45.58-10.77 45.58-28.59s-16.16-26.11-39.78-31.08l-33.56-7.05c-38.54-7.87-67.54-24.03-67.54-65.06s41.44-64.23 91.16-64.23c46 0 86.6 21.96 95.31 67.54h-46.41ZM1141.07 347.37h49.31v58.84h44.75v35.64h-44.75v121.41c0 22.79 5.39 28.18 26.52 28.18h17.82v37.71h-36.47c-47.65 0-57.18-12.84-57.18-58.43V441.85h-33.15v-35.64h33.15v-58.84ZM1308.41 328.72v49.73h-49.31v-49.73h49.31Zm0 77.49v222.93h-49.31V406.21h49.31ZM1364.21 347.37h49.31v58.84h44.75v35.64h-44.75v121.41c0 22.79 5.39 28.18 26.52 28.18h17.82v37.71h-36.47c-47.65 0-57.18-12.84-57.18-58.43V441.85h-33.15v-35.64h33.15v-58.84ZM1620.62 598.48c-12.84 23.2-35.64 36.05-65.89 36.05-53.04 0-74.59-34.81-74.59-87.85V406.21h49.31v128.46c0 30.25 4.14 59.67 41.02 59.67s50.14-29.01 50.14-69.2V406.21h49.31v222.93h-49.31v-30.66ZM1723.95 347.37h49.31v58.84h44.75v35.64h-44.75v121.41c0 22.79 5.39 28.18 26.52 28.18h17.82v37.71h-36.46c-47.65 0-57.18-12.84-57.18-58.43V441.85h-33.15v-35.64h33.15v-58.84ZM0 .22h132.87V316.5H0zM184.87.22h97.51V316.5h-97.51zM441.03.22h38V316.5h-38zM334.38.22h54.65V316.5h-54.65z" style="fill:#ff6a00"/>
    <path d="M88.99 312.72h118.23V629H88.99zM259.22 312.72h249.32V629H259.22z" style="fill:#ff6a00"/>
</svg>
