<svg viewBox="0 0 1500 560" xmlns="http://www.w3.org/2000/svg">
<rect x="22" y="22" width="8" height="8" fill="#dcdad2"/>
<rect x="1470" y="22" width="8" height="8" fill="#dcdad2"/>
<rect x="22" y="530" width="8" height="8" fill="#dcdad2"/>
<rect x="1470" y="530" width="8" height="8" fill="#dcdad2"/>
<g fill="#e7e5dc">
<circle cx="60" cy="40" r="1.9"/>
<circle cx="60" cy="88" r="1.9"/>
<circle cx="60" cy="136" r="1.9"/>
<circle cx="60" cy="184" r="1.9"/>
<circle cx="60" cy="232" r="1.9"/>
<circle cx="60" cy="280" r="1.9"/>
<circle cx="60" cy="328" r="1.9"/>
<circle cx="60" cy="376" r="1.9"/>
<circle cx="60" cy="424" r="1.9"/>
<circle cx="60" cy="472" r="1.9"/>
<circle cx="108" cy="40" r="1.9"/>
<circle cx="108" cy="88" r="1.9"/>
<circle cx="108" cy="136" r="1.9"/>
<circle cx="108" cy="184" r="1.9"/>
<circle cx="108" cy="232" r="1.9"/>
<circle cx="108" cy="280" r="1.9"/>
<circle cx="108" cy="328" r="1.9"/>
<circle cx="108" cy="376" r="1.9"/>
<circle cx="108" cy="424" r="1.9"/>
<circle cx="108" cy="472" r="1.9"/>
<circle cx="156" cy="40" r="1.9"/>
<circle cx="156" cy="88" r="1.9"/>
<circle cx="156" cy="136" r="1.9"/>
<circle cx="156" cy="184" r="1.9"/>
<circle cx="156" cy="232" r="1.9"/>
<circle cx="156" cy="280" r="1.9"/>
<circle cx="156" cy="328" r="1.9"/>
<circle cx="156" cy="376" r="1.9"/>
<circle cx="156" cy="424" r="1.9"/>
<circle cx="156" cy="472" r="1.9"/>
<circle cx="204" cy="40" r="1.9"/>
<circle cx="204" cy="88" r="1.9"/>
<circle cx="204" cy="136" r="1.9"/>
<circle cx="204" cy="184" r="1.9"/>
<circle cx="204" cy="232" r="1.9"/>
<circle cx="204" cy="280" r="1.9"/>
<circle cx="204" cy="328" r="1.9"/>
<circle cx="204" cy="376" r="1.9"/>
<circle cx="204" cy="424" r="1.9"/>
<circle cx="204" cy="472" r="1.9"/>
<circle cx="252" cy="40" r="1.9"/>
<circle cx="252" cy="88" r="1.9"/>
<circle cx="252" cy="136" r="1.9"/>
<circle cx="252" cy="184" r="1.9"/>
<circle cx="252" cy="232" r="1.9"/>
<circle cx="252" cy="280" r="1.9"/>
<circle cx="252" cy="328" r="1.9"/>
<circle cx="252" cy="376" r="1.9"/>
<circle cx="252" cy="424" r="1.9"/>
<circle cx="252" cy="472" r="1.9"/>
<circle cx="300" cy="40" r="1.9"/>
<circle cx="300" cy="88" r="1.9"/>
<circle cx="300" cy="136" r="1.9"/>
<circle cx="300" cy="184" r="1.9"/>
<circle cx="300" cy="232" r="1.9"/>
<circle cx="300" cy="280" r="1.9"/>
<circle cx="300" cy="328" r="1.9"/>
<circle cx="300" cy="376" r="1.9"/>
<circle cx="300" cy="424" r="1.9"/>
<circle cx="300" cy="472" r="1.9"/>
<circle cx="348" cy="40" r="1.9"/>
<circle cx="348" cy="88" r="1.9"/>
<circle cx="348" cy="136" r="1.9"/>
<circle cx="348" cy="184" r="1.9"/>
<circle cx="348" cy="232" r="1.9"/>
<circle cx="348" cy="280" r="1.9"/>
<circle cx="348" cy="328" r="1.9"/>
<circle cx="348" cy="376" r="1.9"/>
<circle cx="348" cy="424" r="1.9"/>
<circle cx="348" cy="472" r="1.9"/>
<circle cx="396" cy="40" r="1.9"/>
<circle cx="396" cy="88" r="1.9"/>
<circle cx="396" cy="136" r="1.9"/>
<circle cx="396" cy="184" r="1.9"/>
<circle cx="396" cy="232" r="1.9"/>
<circle cx="396" cy="280" r="1.9"/>
<circle cx="396" cy="328" r="1.9"/>
<circle cx="396" cy="376" r="1.9"/>
<circle cx="396" cy="424" r="1.9"/>
<circle cx="396" cy="472" r="1.9"/>
<circle cx="444" cy="40" r="1.9"/>
<circle cx="444" cy="88" r="1.9"/>
<circle cx="444" cy="136" r="1.9"/>
<circle cx="444" cy="184" r="1.9"/>
<circle cx="444" cy="232" r="1.9"/>
<circle cx="444" cy="280" r="1.9"/>
<circle cx="444" cy="328" r="1.9"/>
<circle cx="444" cy="376" r="1.9"/>
<circle cx="444" cy="424" r="1.9"/>
<circle cx="444" cy="472" r="1.9"/>
<circle cx="492" cy="40" r="1.9"/>
<circle cx="492" cy="88" r="1.9"/>
<circle cx="492" cy="136" r="1.9"/>
<circle cx="492" cy="184" r="1.9"/>
<circle cx="492" cy="232" r="1.9"/>
<circle cx="492" cy="280" r="1.9"/>
<circle cx="492" cy="328" r="1.9"/>
<circle cx="492" cy="376" r="1.9"/>
<circle cx="492" cy="424" r="1.9"/>
<circle cx="492" cy="472" r="1.9"/>
<circle cx="540" cy="40" r="1.9"/>
<circle cx="540" cy="88" r="1.9"/>
<circle cx="540" cy="136" r="1.9"/>
<circle cx="540" cy="184" r="1.9"/>
<circle cx="540" cy="232" r="1.9"/>
<circle cx="540" cy="280" r="1.9"/>
<circle cx="540" cy="328" r="1.9"/>
<circle cx="540" cy="376" r="1.9"/>
<circle cx="540" cy="424" r="1.9"/>
<circle cx="540" cy="472" r="1.9"/>
<circle cx="588" cy="40" r="1.9"/>
<circle cx="588" cy="88" r="1.9"/>
<circle cx="588" cy="136" r="1.9"/>
<circle cx="588" cy="184" r="1.9"/>
<circle cx="588" cy="232" r="1.9"/>
<circle cx="588" cy="280" r="1.9"/>
<circle cx="588" cy="328" r="1.9"/>
<circle cx="588" cy="376" r="1.9"/>
<circle cx="588" cy="424" r="1.9"/>
<circle cx="588" cy="472" r="1.9"/>
<circle cx="636" cy="40" r="1.9"/>
<circle cx="636" cy="88" r="1.9"/>
<circle cx="636" cy="136" r="1.9"/>
<circle cx="636" cy="184" r="1.9"/>
<circle cx="636" cy="232" r="1.9"/>
<circle cx="636" cy="280" r="1.9"/>
<circle cx="636" cy="328" r="1.9"/>
<circle cx="636" cy="376" r="1.9"/>
<circle cx="636" cy="424" r="1.9"/>
<circle cx="636" cy="472" r="1.9"/>
<circle cx="684" cy="40" r="1.9"/>
<circle cx="684" cy="88" r="1.9"/>
<circle cx="684" cy="136" r="1.9"/>
<circle cx="684" cy="184" r="1.9"/>
<circle cx="684" cy="232" r="1.9"/>
<circle cx="684" cy="280" r="1.9"/>
<circle cx="684" cy="328" r="1.9"/>
<circle cx="684" cy="376" r="1.9"/>
<circle cx="684" cy="424" r="1.9"/>
<circle cx="684" cy="472" r="1.9"/>
<circle cx="732" cy="40" r="1.9"/>
<circle cx="732" cy="88" r="1.9"/>
<circle cx="732" cy="136" r="1.9"/>
<circle cx="732" cy="184" r="1.9"/>
<circle cx="732" cy="232" r="1.9"/>
<circle cx="732" cy="280" r="1.9"/>
<circle cx="732" cy="328" r="1.9"/>
<circle cx="732" cy="376" r="1.9"/>
<circle cx="732" cy="424" r="1.9"/>
<circle cx="732" cy="472" r="1.9"/>
<circle cx="780" cy="40" r="1.9"/>
<circle cx="780" cy="88" r="1.9"/>
<circle cx="780" cy="136" r="1.9"/>
<circle cx="780" cy="184" r="1.9"/>
<circle cx="780" cy="232" r="1.9"/>
<circle cx="780" cy="280" r="1.9"/>
<circle cx="780" cy="328" r="1.9"/>
<circle cx="780" cy="376" r="1.9"/>
<circle cx="780" cy="424" r="1.9"/>
<circle cx="780" cy="472" r="1.9"/>
<circle cx="828" cy="40" r="1.9"/>
<circle cx="828" cy="88" r="1.9"/>
<circle cx="828" cy="136" r="1.9"/>
<circle cx="828" cy="184" r="1.9"/>
<circle cx="828" cy="232" r="1.9"/>
<circle cx="828" cy="280" r="1.9"/>
<circle cx="828" cy="328" r="1.9"/>
<circle cx="828" cy="376" r="1.9"/>
<circle cx="828" cy="424" r="1.9"/>
<circle cx="828" cy="472" r="1.9"/>
<circle cx="876" cy="40" r="1.9"/>
<circle cx="876" cy="88" r="1.9"/>
<circle cx="876" cy="136" r="1.9"/>
<circle cx="876" cy="184" r="1.9"/>
<circle cx="876" cy="232" r="1.9"/>
<circle cx="876" cy="280" r="1.9"/>
<circle cx="876" cy="328" r="1.9"/>
<circle cx="876" cy="376" r="1.9"/>
<circle cx="876" cy="424" r="1.9"/>
<circle cx="876" cy="472" r="1.9"/>
<circle cx="924" cy="40" r="1.9"/>
<circle cx="924" cy="88" r="1.9"/>
<circle cx="924" cy="136" r="1.9"/>
<circle cx="924" cy="184" r="1.9"/>
<circle cx="924" cy="232" r="1.9"/>
<circle cx="924" cy="280" r="1.9"/>
<circle cx="924" cy="328" r="1.9"/>
<circle cx="924" cy="376" r="1.9"/>
<circle cx="924" cy="424" r="1.9"/>
<circle cx="924" cy="472" r="1.9"/>
<circle cx="972" cy="40" r="1.9"/>
<circle cx="972" cy="88" r="1.9"/>
<circle cx="972" cy="136" r="1.9"/>
<circle cx="972" cy="184" r="1.9"/>
<circle cx="972" cy="232" r="1.9"/>
<circle cx="972" cy="280" r="1.9"/>
<circle cx="972" cy="328" r="1.9"/>
<circle cx="972" cy="376" r="1.9"/>
<circle cx="972" cy="424" r="1.9"/>
<circle cx="972" cy="472" r="1.9"/>
<circle cx="1020" cy="40" r="1.9"/>
<circle cx="1020" cy="88" r="1.9"/>
<circle cx="1020" cy="136" r="1.9"/>
<circle cx="1020" cy="184" r="1.9"/>
<circle cx="1020" cy="232" r="1.9"/>
<circle cx="1020" cy="280" r="1.9"/>
<circle cx="1020" cy="328" r="1.9"/>
<circle cx="1020" cy="376" r="1.9"/>
<circle cx="1020" cy="424" r="1.9"/>
<circle cx="1020" cy="472" r="1.9"/>
<circle cx="1068" cy="40" r="1.9"/>
<circle cx="1068" cy="88" r="1.9"/>
<circle cx="1068" cy="136" r="1.9"/>
<circle cx="1068" cy="184" r="1.9"/>
<circle cx="1068" cy="232" r="1.9"/>
<circle cx="1068" cy="280" r="1.9"/>
<circle cx="1068" cy="328" r="1.9"/>
<circle cx="1068" cy="376" r="1.9"/>
<circle cx="1068" cy="424" r="1.9"/>
<circle cx="1068" cy="472" r="1.9"/>
<circle cx="1116" cy="40" r="1.9"/>
<circle cx="1116" cy="88" r="1.9"/>
<circle cx="1116" cy="136" r="1.9"/>
<circle cx="1116" cy="184" r="1.9"/>
<circle cx="1116" cy="232" r="1.9"/>
<circle cx="1116" cy="280" r="1.9"/>
<circle cx="1116" cy="328" r="1.9"/>
<circle cx="1116" cy="376" r="1.9"/>
<circle cx="1116" cy="424" r="1.9"/>
<circle cx="1116" cy="472" r="1.9"/>
<circle cx="1164" cy="40" r="1.9"/>
<circle cx="1164" cy="88" r="1.9"/>
<circle cx="1164" cy="136" r="1.9"/>
<circle cx="1164" cy="184" r="1.9"/>
<circle cx="1164" cy="232" r="1.9"/>
<circle cx="1164" cy="280" r="1.9"/>
<circle cx="1164" cy="328" r="1.9"/>
<circle cx="1164" cy="376" r="1.9"/>
<circle cx="1164" cy="424" r="1.9"/>
<circle cx="1164" cy="472" r="1.9"/>
<circle cx="1212" cy="40" r="1.9"/>
<circle cx="1212" cy="88" r="1.9"/>
<circle cx="1212" cy="136" r="1.9"/>
<circle cx="1212" cy="184" r="1.9"/>
<circle cx="1212" cy="232" r="1.9"/>
<circle cx="1212" cy="280" r="1.9"/>
<circle cx="1212" cy="328" r="1.9"/>
<circle cx="1212" cy="376" r="1.9"/>
<circle cx="1212" cy="424" r="1.9"/>
<circle cx="1212" cy="472" r="1.9"/>
<circle cx="1260" cy="40" r="1.9"/>
<circle cx="1260" cy="88" r="1.9"/>
<circle cx="1260" cy="136" r="1.9"/>
<circle cx="1260" cy="184" r="1.9"/>
<circle cx="1260" cy="232" r="1.9"/>
<circle cx="1260" cy="280" r="1.9"/>
<circle cx="1260" cy="328" r="1.9"/>
<circle cx="1260" cy="376" r="1.9"/>
<circle cx="1260" cy="424" r="1.9"/>
<circle cx="1260" cy="472" r="1.9"/>
<circle cx="1308" cy="40" r="1.9"/>
<circle cx="1308" cy="88" r="1.9"/>
<circle cx="1308" cy="136" r="1.9"/>
<circle cx="1308" cy="184" r="1.9"/>
<circle cx="1308" cy="232" r="1.9"/>
<circle cx="1308" cy="280" r="1.9"/>
<circle cx="1308" cy="328" r="1.9"/>
<circle cx="1308" cy="376" r="1.9"/>
<circle cx="1308" cy="424" r="1.9"/>
<circle cx="1308" cy="472" r="1.9"/>
<circle cx="1356" cy="40" r="1.9"/>
<circle cx="1356" cy="88" r="1.9"/>
<circle cx="1356" cy="136" r="1.9"/>
<circle cx="1356" cy="184" r="1.9"/>
<circle cx="1356" cy="232" r="1.9"/>
<circle cx="1356" cy="280" r="1.9"/>
<circle cx="1356" cy="328" r="1.9"/>
<circle cx="1356" cy="376" r="1.9"/>
<circle cx="1356" cy="424" r="1.9"/>
<circle cx="1356" cy="472" r="1.9"/>
<circle cx="1404" cy="40" r="1.9"/>
<circle cx="1404" cy="88" r="1.9"/>
<circle cx="1404" cy="136" r="1.9"/>
<circle cx="1404" cy="184" r="1.9"/>
<circle cx="1404" cy="232" r="1.9"/>
<circle cx="1404" cy="280" r="1.9"/>
<circle cx="1404" cy="328" r="1.9"/>
<circle cx="1404" cy="376" r="1.9"/>
<circle cx="1404" cy="424" r="1.9"/>
<circle cx="1404" cy="472" r="1.9"/>
<circle cx="1452" cy="40" r="1.9"/>
<circle cx="1452" cy="88" r="1.9"/>
<circle cx="1452" cy="136" r="1.9"/>
<circle cx="1452" cy="184" r="1.9"/>
<circle cx="1452" cy="232" r="1.9"/>
<circle cx="1452" cy="280" r="1.9"/>
<circle cx="1452" cy="328" r="1.9"/>
<circle cx="1452" cy="376" r="1.9"/>
<circle cx="1452" cy="424" r="1.9"/>
<circle cx="1452" cy="472" r="1.9"/>
</g>
<line x1="40" y1="480" x2="1460" y2="480" stroke="#c9c7bd" stroke-width="1.2" stroke-dasharray="1,6" stroke-linecap="round"/>
<line x1="420" y1="40" x2="420" y2="480" stroke="#e2e0d6" stroke-width="1" stroke-dasharray="2,7"/>
<line x1="900" y1="40" x2="900" y2="480" stroke="#e2e0d6" stroke-width="1" stroke-dasharray="2,7"/>
<line x1="1280" y1="40" x2="1280" y2="480" stroke="#e2e0d6" stroke-width="1" stroke-dasharray="2,7"/>
<line x1="90.0" y1="220.0" x2="90.0" y2="480" stroke="#232323" stroke-width="2.20" stroke-linecap="round"/>
<line x1="90.0" y1="220.0" x2="49.6" y2="146.0" stroke="#232323" stroke-width="2.20" stroke-linecap="round"/>
<line x1="90.0" y1="220.0" x2="27.2" y2="273.5" stroke="#232323" stroke-width="2.20" stroke-linecap="round"/>
<line x1="90.0" y1="220.0" x2="164.4" y2="269.6" stroke="#232323" stroke-width="2.20" stroke-linecap="round"/>
<circle cx="90.0" cy="220.0" r="8.00" fill="#8FCB7E"/>
<line x1="240.0" y1="256.4" x2="240.0" y2="480" stroke="#343433" stroke-width="1.89" stroke-linecap="round"/>
<line x1="240.0" y1="256.4" x2="213.9" y2="181.0" stroke="#343433" stroke-width="1.89" stroke-linecap="round"/>
<line x1="240.0" y1="256.4" x2="165.7" y2="281.1" stroke="#343433" stroke-width="1.89" stroke-linecap="round"/>
<line x1="240.0" y1="256.4" x2="285.4" y2="311.4" stroke="#343433" stroke-width="1.89" stroke-linecap="round"/>
<circle cx="240.0" cy="256.4" r="6.88" fill="#8FCB7E"/>
<line x1="369.0" y1="287.7" x2="369.0" y2="480" stroke="#454543" stroke-width="1.63" stroke-linecap="round"/>
<line x1="369.0" y1="287.7" x2="329.3" y2="224.9" stroke="#454543" stroke-width="1.63" stroke-linecap="round"/>
<line x1="369.0" y1="287.7" x2="309.8" y2="311.0" stroke="#454543" stroke-width="1.63" stroke-linecap="round"/>
<line x1="369.0" y1="287.7" x2="434.9" y2="326.4" stroke="#454543" stroke-width="1.63" stroke-linecap="round"/>
<circle cx="369.0" cy="287.7" r="5.92" fill="#8FCB7E"/>
<line x1="479.9" y1="314.6" x2="479.9" y2="480" stroke="#565553" stroke-width="1.40" stroke-linecap="round"/>
<line x1="479.9" y1="314.6" x2="444.8" y2="269.3" stroke="#565553" stroke-width="1.40" stroke-linecap="round"/>
<line x1="479.9" y1="314.6" x2="448.0" y2="355.7" stroke="#565553" stroke-width="1.40" stroke-linecap="round"/>
<line x1="479.9" y1="314.6" x2="531.6" y2="335.6" stroke="#565553" stroke-width="1.40" stroke-linecap="round"/>
<circle cx="479.9" cy="314.6" r="5.09" fill="#8FCB7E"/>
<line x1="575.3" y1="337.8" x2="575.3" y2="480" stroke="#676663" stroke-width="1.20" stroke-linecap="round"/>
<line x1="575.3" y1="337.8" x2="558.1" y2="295.5" stroke="#676663" stroke-width="1.20" stroke-linecap="round"/>
<line x1="575.3" y1="337.8" x2="527.0" y2="363.6" stroke="#676663" stroke-width="1.20" stroke-linecap="round"/>
<line x1="575.3" y1="337.8" x2="611.0" y2="375.3" stroke="#676663" stroke-width="1.20" stroke-linecap="round"/>
<circle cx="575.3" cy="337.8" r="4.38" fill="#8FCB7E"/>
<line x1="657.4" y1="357.7" x2="657.4" y2="480" stroke="#787773" stroke-width="1.03" stroke-linecap="round"/>
<line x1="657.4" y1="357.7" x2="630.3" y2="325.4" stroke="#787773" stroke-width="1.03" stroke-linecap="round"/>
<line x1="657.4" y1="357.7" x2="626.4" y2="380.8" stroke="#787773" stroke-width="1.03" stroke-linecap="round"/>
<line x1="657.4" y1="357.7" x2="682.8" y2="388.9" stroke="#787773" stroke-width="1.03" stroke-linecap="round"/>
<circle cx="657.4" cy="357.7" r="3.76" fill="#8FCB7E"/>
<line x1="728.0" y1="374.8" x2="728.0" y2="480" stroke="#898884" stroke-width="0.89" stroke-linecap="round"/>
<line x1="728.0" y1="374.8" x2="703.6" y2="347.3" stroke="#898884" stroke-width="0.89" stroke-linecap="round"/>
<line x1="728.0" y1="374.8" x2="694.2" y2="393.0" stroke="#898884" stroke-width="0.89" stroke-linecap="round"/>
<line x1="728.0" y1="374.8" x2="756.5" y2="396.1" stroke="#898884" stroke-width="0.89" stroke-linecap="round"/>
<circle cx="728.0" cy="374.8" r="3.24" fill="#8FCB7E"/>
<line x1="788.6" y1="389.5" x2="788.6" y2="480" stroke="#9A9994" stroke-width="0.77" stroke-linecap="round"/>
<line x1="788.6" y1="389.5" x2="764.4" y2="365.8" stroke="#9A9994" stroke-width="0.77" stroke-linecap="round"/>
<line x1="788.6" y1="389.5" x2="759.1" y2="403.8" stroke="#9A9994" stroke-width="0.77" stroke-linecap="round"/>
<line x1="788.6" y1="389.5" x2="817.9" y2="409.3" stroke="#9A9994" stroke-width="0.77" stroke-linecap="round"/>
<circle cx="788.6" cy="389.5" r="3.00" fill="#8FCB7E"/>
<line x1="840.8" y1="402.2" x2="840.8" y2="480" stroke="#ABAAA4" stroke-width="0.66" stroke-linecap="round"/>
<line x1="840.8" y1="402.2" x2="822.9" y2="383.1" stroke="#ABAAA4" stroke-width="0.66" stroke-linecap="round"/>
<line x1="840.8" y1="402.2" x2="825.5" y2="422.0" stroke="#ABAAA4" stroke-width="0.66" stroke-linecap="round"/>
<line x1="840.8" y1="402.2" x2="864.1" y2="420.4" stroke="#ABAAA4" stroke-width="0.66" stroke-linecap="round"/>
<circle cx="840.8" cy="402.2" r="3.00" fill="#8FCB7E"/>
<line x1="885.7" y1="413.1" x2="885.7" y2="480" stroke="#BCBAB4" stroke-width="0.60" stroke-linecap="round"/>
<line x1="885.7" y1="413.1" x2="876.6" y2="391.1" stroke="#BCBAB4" stroke-width="0.60" stroke-linecap="round"/>
<line x1="885.7" y1="413.1" x2="862.1" y2="420.9" stroke="#BCBAB4" stroke-width="0.60" stroke-linecap="round"/>
<line x1="885.7" y1="413.1" x2="907.6" y2="423.5" stroke="#BCBAB4" stroke-width="0.60" stroke-linecap="round"/>
<circle cx="885.7" cy="413.1" r="3.00" fill="#8FCB7E"/>
<line x1="924.3" y1="422.5" x2="924.3" y2="480" stroke="#CDCBC4" stroke-width="0.60" stroke-linecap="round"/>
<line x1="924.3" y1="422.5" x2="909.7" y2="409.5" stroke="#CDCBC4" stroke-width="0.60" stroke-linecap="round"/>
<line x1="924.3" y1="422.5" x2="908.7" y2="436.5" stroke="#CDCBC4" stroke-width="0.60" stroke-linecap="round"/>
<line x1="924.3" y1="422.5" x2="941.5" y2="433.2" stroke="#CDCBC4" stroke-width="0.60" stroke-linecap="round"/>
<circle cx="924.3" cy="422.5" r="3.00" fill="#8FCB7E"/>
<line x1="957.5" y1="430.5" x2="957.5" y2="480" stroke="#DEDCD4" stroke-width="0.60" stroke-linecap="round"/>
<line x1="957.5" y1="430.5" x2="943.1" y2="417.2" stroke="#DEDCD4" stroke-width="0.60" stroke-linecap="round"/>
<line x1="957.5" y1="430.5" x2="942.3" y2="440.8" stroke="#DEDCD4" stroke-width="0.60" stroke-linecap="round"/>
<line x1="957.5" y1="430.5" x2="969.2" y2="444.9" stroke="#DEDCD4" stroke-width="0.60" stroke-linecap="round"/>
<circle cx="957.5" cy="430.5" r="3.00" fill="#8FCB7E"/>
</svg>